<?xml version="1.0" encoding="UTF-8" standalone="no"?>
<svg
   xmlns:dc="http://purl.org/dc/elements/1.1/"
   xmlns:cc="http://creativecommons.org/ns#"
   xmlns:rdf="http://www.w3.org/1999/02/22-rdf-syntax-ns#"
   xmlns:svg="http://www.w3.org/2000/svg"
   xmlns="http://www.w3.org/2000/svg"
   xmlns:sodipodi="http://sodipodi.sourceforge.net/DTD/sodipodi-0.dtd"
   xmlns:inkscape="http://www.inkscape.org/namespaces/inkscape"
   viewBox="0 0 201.64 177.91"
   version="1.1"
   id="svg72"
   sodipodi:docname="whocc.svg"
   width="201.64"
   height="177.91"
   inkscape:version="0.92.5 (2060ec1f9f, 2020-04-08)">
  <metadata
     id="metadata76">
    <rdf:RDF>
      <cc:Work
         rdf:about="">
        <dc:format>image/svg+xml</dc:format>
        <dc:type
           rdf:resource="http://purl.org/dc/dcmitype/StillImage" />
        <dc:title>World Health Organization</dc:title>
      </cc:Work>
    </rdf:RDF>
  </metadata>
  <sodipodi:namedview
     pagecolor="#ffffff"
     bordercolor="#666666"
     borderopacity="1"
     objecttolerance="10"
     gridtolerance="10"
     guidetolerance="10"
     inkscape:pageopacity="0"
     inkscape:pageshadow="2"
     inkscape:window-width="640"
     inkscape:window-height="480"
     id="namedview74"
     showgrid="false"
     fit-margin-top="0"
     fit-margin-left="0"
     fit-margin-right="0"
     fit-margin-bottom="0"
     inkscape:zoom="0.73344581"
     inkscape:cx="290.41"
     inkscape:cy="88.929997"
     inkscape:window-x="1676"
     inkscape:window-y="137"
     inkscape:window-maximized="0"
     inkscape:current-layer="ENGLISH" />
  <defs
     id="defs4">
    <style
       id="style2">.cls-1{fill:#0093d5;}</style>
  </defs>
  <title
     id="title6">World Health Organization</title>
  <g
     id="Layer_2"
     data-name="Layer 2">
    <g
       id="ENGLISH">
      <path
         class="cls-1"
         d="m 164,32.58 c 3.86,4.6 10.61,7.31 14.56,11.92 -2.83,-13.63 -13.35,-24.76 -25.79,-27.42 6.07,4.57 7.38,10.92 11.23,15.5 z M 14.48,67.13 c 8.57,-18.65 21.36,-14.7 26.77,-32.47 -3,5.45 -17,7.75 -23.51,21.72 3.31,-8.3 1.65,-21 7.25,-27.85 C 8.25,40.88 15.38,60.86 14.48,67.13 Z M 30,111.86 c 1.54,7.26 -3,17.74 4.2,27.76 -7.44,-8.34 -23.2,-10.46 -29.62,-23.14 8,31 29,24.6 38.39,31.33 C 35.21,136.66 41.56,129.25 30,111.86 Z m -2.41,19.45 C 23,114 31.18,108 24.93,91.4 c -0.65,9.36 -6.89,13.92 -2.68,31 C 14.82,107.94 3.33,102.54 0,92.6 c 0.23,27.18 22.07,31.21 27.59,38.71 z m 33.54,29 c -6.43,-8.9 -2,-13.93 -20.1,-30.09 3.82,5.9 -0.12,13.32 12.06,24.86 -11.92,-7 -28.36,-4 -36.29,-13.41 13.62,26.07 37.55,15.43 44.33,18.67 z m 87.42,-5.23 c 12.18,-11.54 8.24,-19 12.06,-24.86 -18.06,16.16 -13.67,21.19 -20.1,30.09 6.78,-3.24 30.71,7.4 44.32,-18.64 -7.92,9.42 -24.36,6.41 -36.28,13.44 z m 18.89,-15.49 c 7.17,-10 2.66,-20.5 4.2,-27.76 -11.56,17.39 -5.21,24.8 -13,36 9.44,-6.73 30.36,-0.35 38.39,-31.33 -6.41,12.66 -22.15,14.78 -29.59,23.12 z m -28.86,21.95 a 89.2,89.2 0 0 0 -19.75,-3 47.75,47.75 0 0 0 -18,3.06 47.78,47.78 0 0 0 -18,-3.06 89.2,89.2 0 0 0 -19.75,3 c -10.87,2.89 -20.26,5.13 -28.45,1 7.85,7 17,9.45 30.23,8 11,-1.18 19.91,-6.69 30.29,-6.61 h 0.41 a 55.47,55.47 0 0 0 -17.12,13.31 l 5,0.67 c 0,0 5.27,-10.59 17.39,-13.35 12.12,2.76 17.39,13.35 17.39,13.35 l 5,-0.67 A 55.63,55.63 0 0 0 106.1,164 h 0.41 c 10.38,-0.08 19.27,5.43 30.28,6.61 13.23,1.43 22.39,-1.06 30.24,-8 -8.19,4.09 -17.58,1.85 -28.45,-1.04 z M 25.67,72.63 C 21.19,81.23 14.23,83.2 15,101 11.22,85.18 2.24,79.32 2.35,69.23 c -6.24,26.3 10.44,29.42 14.72,40.44 -0.63,-15.79 9.45,-18.98 8.6,-37.04 z m 6.26,-20.3 c -1.56,2.18 -2.65,3.11 -6.81,6.54 A 33.77,33.77 0 0 0 13,78.64 C 13.43,69 7.47,55.15 11.43,45.05 -3.9,66.7 12.31,79.67 12.88,87.51 16.86,72.42 26,72.3 31.93,52.33 Z m 156.7,26.31 A 33.82,33.82 0 0 0 176.52,58.87 c -4.16,-3.43 -5.25,-4.36 -6.81,-6.54 5.93,20 15.07,20.09 19,35.18 0.57,-7.84 16.78,-20.81 1.44,-42.46 4,10.1 -1.95,23.95 -1.52,33.59 z m 13,14 c -3.33,9.94 -14.82,15.34 -22.25,29.84 4.21,-17.12 -2,-21.68 -2.68,-31 -6.25,16.62 2,22.59 -2.66,39.91 5.53,-7.58 27.37,-11.61 27.6,-38.79 z M 176,72.63 c -0.85,18.06 9.24,21.25 8.6,37 4.29,-11 21,-14.14 14.72,-40.44 0.12,10.09 -8.86,16 -12.61,31.72 C 187.41,83.2 180.45,81.23 176,72.63 Z M 37.66,32.63 C 41.53,28.03 42.84,21.7 48.9,17.13 36.46,19.79 25.9,30.92 23.11,44.55 27,39.89 33.76,37.18 37.62,32.58 Z m 122.77,2.08 c 5.41,17.77 18.2,13.82 26.76,32.47 -0.89,-6.27 6.24,-26.25 -10.5,-38.6 5.6,6.86 3.94,19.55 7.25,27.85 -6.53,-14.02 -20.5,-16.32 -23.55,-21.77 z M 117,44.75 A 41.92,41.92 0 0 0 106.77,42 c 0,0.75 0,1.52 0,2.28 a 40,40 0 0 1 9.4,2.58 6,6 0 0 0 0.83,-2.11 z m -2.59,-22 0.68,-0.61 -1.3,-0.55 -3.42,-0.07 -0.89,0.62 -2,-0.17 v 0.49 a 34.75,34.75 0 0 1 3.52,0.37 l 1.67,-0.15 z m -6.63,73.75 c 0,-0.58 -0.77,-1.15 -1.91,-1.69 h -0.21 c 0,0.47 0,2.79 -0.07,3.92 1.41,-0.63 2.19,-1.31 2.19,-2.23 z M 68.16,53 a 10.92,10.92 0 0 1 0.29,-1.25 5.79,5.79 0 0 1 -1.4,0.14 z m 32.73,100.6 A 69.76,69.76 0 0 0 108,14.47 c 0,0.13 0,0.27 -0.08,0.4 -0.14,0.68 -0.27,1.29 -0.37,1.83 a 67.35,67.35 0 0 1 40.63,19 l -7.7,7.7 0.29,-1.36 -1,-0.44 -1.38,-0.08 0.29,-0.89 -0.93,-3.15 -1.92,-2.11 -6,-3.17 -0.52,0.55 -1.09,0.32 a 18,18 0 0 1 3.18,10.11 c 0,0.47 0,0.92 0,1.37 l 3,3.75 -1.4,0.32 0.93,1.4 -2.63,2.62 -1.06,-2 a 17.92,17.92 0 0 1 -2,3.93 l 0.59,0.54 -8.11,8.11 c -0.49,-0.47 -1,-0.92 -1.52,-1.35 -0.78,0.36 -1.57,0.69 -2.38,1 l 0.69,0.54 -0.41,0.41 -1,0.53 -0.35,1 -0.59,-0.59 -1.71,0.57 0.47,0.75 1.18,-0.31 0.77,0.06 0.06,-0.42 0.59,-0.3 0.18,-0.35 1.06,-0.3 h 0.83 c 0.16,0.14 0.33,0.29 0.48,0.44 l -3.26,3.1 -0.24,-0.34 -3.36,0.55 -0.75,0.75 -0.73,0.09 2.08,-2 -0.74,-0.37 -1.95,2.6 0.57,-0.06 v 1 l 0.71,0.28 0.14,1 -1.17,-0.23 -1.22,0.22 -3,-1.51 c 0,0 -0.16,7.92 -0.24,11.9 7,2.34 14.35,5.72 14.35,14.6 a 11,11 0 0 1 -5,9.38 v 0 l -0.15,0.1 v 0 l -0.22,0.15 c -2.82,1.86 -6.44,2.86 -9.58,3.84 0,0 -0.09,6.22 -0.09,6.22 5,2.48 11.05,6.09 10.49,16.42 -0.07,2.54 -1.06,3.24 -1.91,3.47 v 0 a 52.52,52.52 0 0 1 -9,1.43 c 0,0.8 0,1.56 0,2.27 a 55.87,55.87 0 0 0 34.78,-15.36 l 8.1,8.1 a 67.37,67.37 0 0 1 -93.3,0.19 l 8.1,-8.1 a 55.83,55.83 0 0 0 34.29,15.15 c 0,-0.7 0,-1.46 0,-2.27 A 53.59,53.59 0 0 1 64.05,123 l 2.16,-2.17 3,0.34 1.58,-1.7 4.14,0.14 0.61,-1.43 -0.15,-0.61 A 42,42 0 0 0 96.48,126 c 0,-0.88 0,-1.65 0,-2.28 A 39.93,39.93 0 0 1 73.76,113.3 l 8.11,-8.11 a 28.85,28.85 0 0 0 6.57,4.41 7.67,7.67 0 0 1 0.82,-2.13 26.22,26.22 0 0 1 -5.79,-3.89 l 8.13,-8.12 a 14.86,14.86 0 0 0 4.34,2.41 c 0,-0.8 0,-1.65 0,-2.44 a 12.47,12.47 0 0 1 -2.68,-1.59 l 2.29,-2.29 c -0.8,-0.24 -1.62,-0.5 -2.42,-0.78 l -1.54,1.54 a 12.4,12.4 0 0 1 -1.94,-2.89 27.57,27.57 0 0 1 -4,-2.14 A 15.69,15.69 0 0 1 78.06,73.5 16.54,16.54 0 0 1 81.34,63 L 73.26,54.92 A 39.91,39.91 0 0 1 94.9,44.28 c 0,-0.78 0,-1.55 -0.05,-2.28 A 42.18,42.18 0 0 0 71.66,53.34 L 70.29,52 c -0.31,0.55 -0.67,1.24 -1.09,2.11 l 0.86,0.87 A 42.13,42.13 0 0 0 58.6,83.17 H 47.13 A 53.62,53.62 0 0 1 62,46.83 l 3.64,3.65 a 4.61,4.61 0 0 0 0.52,0 5.5,5.5 0 0 0 2.07,-0.6 L 63.6,45.25 a 54.51,54.51 0 0 1 8,-6.38 15.06,15.06 0 0 1 0.57,-1.68 26.93,26.93 0 0 1 1.75,-2.35 A 56,56 0 0 0 62,43.63 l -8.1,-8.1 A 67.2,67.2 0 0 1 94,16.73 c -0.06,-0.28 -0.1,-0.5 -0.1,-0.5 -0.1,-0.53 -0.22,-1.12 -0.33,-1.74 a 69.77,69.77 0 0 0 7.28,139.15 z M 116,105.45 v -0.06 0 z m 33.78,-68.12 a 67.26,67.26 0 0 1 18.65,45.84 h -11.51 a 55.67,55.67 0 0 0 -6,-24.48 l 0.1,-0.2 0.79,0.42 0.19,-0.61 -2,-3.59 -2.43,-3.36 -2.88,-2.35 c -1,-1.22 -2,-2.4 -3.07,-3.54 z M 135.13,52 l 2.75,0.12 0.66,0.79 -0.33,1.17 3.79,2.4 0.75,-0.09 4.9,5.6 2,-0.7 a 53.4,53.4 0 0 1 5,21.88 h -11.46 a 41.78,41.78 0 0 0 -1.07,-8.72 l 0.53,-0.71 0.71,-3.59 -0.54,-3.86 -1.38,-4.44 -3.2,-4.68 0.78,0.41 0.39,-0.39 -2.57,-1.74 -0.17,0.57 2.57,3.67 1.45,3 1,3 0.33,2 0.53,3.38 -1,0.07 c 0,0 -1.11,-2.07 -1.45,-2.92 l 0.51,-0.77 -1,-1.4 v -1.4 l -0.7,-0.88 -0.87,0.11 c -0.31,-0.58 -0.64,-1.15 -1,-1.71 l 0.62,0.31 0.16,-0.16 -0.33,-0.72 0.75,-0.42 -0.34,-0.42 -1.11,0.42 0.41,-1.74 -0.66,-0.38 -0.59,1.39 a 42.64,42.64 0 0 0 -4.17,-5.3 z m -2.3,26.87 2.06,-1.12 2.1,-0.32 0.46,-1 1.17,-0.7 0.45,-1 0.36,-1.69 c 0.17,0.59 0.32,1.2 0.46,1.81 l -1.11,3.31 v 1.12 l 1.61,-2.15 a 38.74,38.74 0 0 1 0.57,6 h -10 l -0.23,-0.87 1.17,-0.93 0.23,-0.56 0.51,-0.38 1.36,-0.14 0.14,-0.6 z M 119.07,71 l 1,-0.24 v -0.24 l -1,-0.69 0.35,-2.16 1.23,-1.23 a 27.16,27.16 0 0 1 2.13,2.77 l -0.43,1.33 -1.12,-0.8 -0.85,0.23 0.42,0.79 h 0.42 l -0.47,1.17 -0.32,-0.47 z m 4.39,38.07 -2.48,-0.7 -0.74,0.27 -1.4,-1.07 -1.32,-0.47 c 0.65,-0.47 1.28,-1 1.89,-1.48 l 2,1.44 1.56,0.82 0.77,0.77 z m -1.26,-44.22 8.11,-8.11 a 40.43,40.43 0 0 1 5,6.74 l -1,0.28 0.05,1.81 3,1.92 a 39.2,39.2 0 0 1 1.9,5.12 l -0.53,0.78 -1.1,0.7 -0.27,1.68 -0.75,0.42 -0.63,0.74 -0.63,-0.23 h -1.12 l 0.65,-0.88 0.47,-2.29 0.74,-0.46 -2.09,-2.15 -1.63,0.55 -0.37,1.53 -1,1.11 -1.07,-0.88 -0.38,-0.94 0.61,-0.38 0.34,0.62 0.5,-0.19 -0.22,-1 h -0.71 l -0.05,0.42 -0.47,0.09 -2.55,-2.99 -0.86,-0.65 0.33,-0.36 0.76,-0.26 -0.7,-0.28 c 0,0 -0.89,0.2 -1,0.2 l 0.51,0.64 h -1.28 a 27.71,27.71 0 0 0 -2.56,-3.3 z m 4.13,43.15 -1.1,-1.1 0.84,-1.09 1.06,-2.16 -0.41,-0.6 0.7,-1.6 -0.08,-1.44 -0.42,-1.49 -1,-0.35 -0.37,0.84 -0.6,-0.16 a 27.18,27.18 0 0 0 2.4,-4.19 l 1,-0.44 0.58,-0.78 0.28,0.32 0.7,-0.84 -0.56,-0.7 0.51,-0.14 0.94,0.38 h 1.77 l 1.07,-0.56 2.8,-0.74 -0.53,-0.93 -0.18,-1.13 1.5,0.66 0.56,-0.33 -0.28,-1.16 -1.81,0.73 -2,-0.42 -1.54,-3.15 h 8.77 a 39.92,39.92 0 0 1 -11.07,26.08 l -1.2,-1.21 0.52,-1.61 -0.94,-3.55 z m 1.55,22.37 1.08,-2.32 -0.42,-1 1.59,-1.4 v -0.84 l -1.36,-0.85 1.12,-2.23 1.68,-2.2 -1.68,-1.81 h -1.26 l -0.78,-1.27 c 0.67,-0.56 1.34,-1.13 2,-1.73 l 8.11,8.11 a 54.38,54.38 0 0 1 -10.08,7.55 z m 10.12,-10.7 0.9,-1 -0.85,-4.44 -0.58,-0.23 0.36,-0.75 -1.92,-0.6 -0.37,1.58 -0.19,2 -0.4,0.37 -3.5,-3.5 a 42.17,42.17 0 0 0 11.74,-27.67 h 11.47 a 53.55,53.55 0 0 1 -15.1,35.78 z m 3.16,3.15 a 55.84,55.84 0 0 0 15.77,-37.38 h 11.46 a 67.28,67.28 0 0 1 -19.12,45.49 z m -69,-11.11 c -0.83,-0.86 -1.62,-1.75 -2.38,-2.68 l 0.35,-2.9 -1.21,-2.78 -0.3,-4.35 -1.36,-2.64 0.28,-1.64 -1.64,-3.15 -1.43,-0.72 0.58,-1.67 -0.59,-1.32 0.59,-1.51 h 1.57 l 0.55,-0.91 h 2.68 l 0.41,0.79 -0.5,2.77 -0.32,0.47 1,2.19 -0.66,0.36 -0.46,-0.58 -0.2,0.22 0.46,1.3 0.79,1.52 h 0.37 L 71,93 70.62,92.5 v -0.92 l -0.12,-1.9 0.5,-3.34 -0.54,-0.9 h 1.92 a 28.48,28.48 0 0 0 7.89,18.17 z M 64.56,89.3 63.48,91 h -1.86 l -0.15,-0.11 a 40.74,40.74 0 0 1 -0.58,-5.45 h 3.45 l -0.83,2.76 z m 3.77,-7.87 0.21,-2.28 1.36,-0.79 2.43,0.43 0.37,0.44 a 27,27 0 0 0 -0.37,3.94 H 69.58 Z M 80,90 l 0.57,-0.29 1.43,1.13 -0.65,0.53 1.69,1.12 -0.04,-1.2 0.9,-1.49 0.94,1 1,1.38 L 84,92.56 84.79,94.14 86,93.5 85.88,93 l 0.9,-0.61 0.53,-2.5 a 14.91,14.91 0 0 0 2.63,4 l -8.1,8.1 a 26.21,26.21 0 0 1 -7.1,-15.22 l 1.66,1.77 h 1.56 z m -8.34,-33.46 8.1,8.11 a 28.91,28.91 0 0 0 -4.3,6.19 H 74.9 l -1.14,0.35 h -0.4 l -1.21,1.13 1.53,-0.32 1.38,-0.35 -0.24,0.53 -1.21,0.74 H 73 l -1.78,1.36 -1.72,-0.14 -2.49,4.64 0.49,0.93 -1.35,1.5 -0.21,2 h -5.08 a 39.92,39.92 0 0 1 10.8,-26.67 z m -10.47,61.15 2.57,1.51 0.53,0.36 -1.86,1.86 q -1.3,-1.35 -2.52,-2.79 z M 58.62,85.44 c 0,1.11 0.14,2.22 0.26,3.31 l -1.4,0.32 -0.29,1.42 -2.92,3.72 0.07,5.11 -3,1 H 49.7 A 53.48,53.48 0 0 1 47.14,85.43 Z M 47.3,100.26 46.63,100.13 46,99.42 l -3.22,-0.28 1,1.35 -3,-0.56 0.78,-0.72 -0.73,-0.72 -2.15,0.94 -0.77,1.42 0.3,3.27 2.48,5.88 1.19,1.86 0.68,0.25 -1.87,-3.55 -0.41,-1.81 0.42,-0.44 -0.26,-1 1.13,0.15 1.73,2.62 0.43,0.17 v -1.91 l 0.7,0.41 0.15,1 1.82,0.48 0.76,-0.54 0.26,0.18 v 1.39 l 0.8,1 1,0.22 2.12,3.59 1.29,0.36 0.4,-1.68 a 56.32,56.32 0 0 0 7.9,10.2 l -8.1,8.1 A 67.32,67.32 0 0 1 33.41,85.44 h 11.47 a 55.83,55.83 0 0 0 2.42,14.82 z m 5,-63.13 8.1,8.1 A 55.91,55.91 0 0 0 44.86,83.17 H 33.4 A 67.28,67.28 0 0 1 52.25,37.13 Z m 83,-4.18 -0.69,-1.12 -1.5,-0.75 -1.17,0.89 1.5,0.8 1.61,1.23 z m -7.01,32.35 v 0.88 l 2,-0.59 0.61,-1.21 -1.37,-1.8 0.73,-1.1 1.85,1.32 0.34,-0.27 -0.37,-0.26 -0.42,-0.8 0.76,-0.44 -0.74,-1 -1.74,0.88 -0.58,1.09 -0.35,0.95 0.77,1.29 -0.28,0.6 z m -82.9,51.42 0.15,-0.52 -1,-2.24 -1.22,-0.45 z M 92.27,73.64 c 0,1.92 1.17,3.28 3.3,4.45 0,0 0,-0.33 0,-0.86 l -1.34,-1.34 0.71,-1.29 0.58,-0.16 c 0,-2.24 -0.09,-4.75 -0.1,-5.11 h -0.1 c -1.98,1.1 -3.05,2.42 -3.05,4.31 z"
         id="path8"
         inkscape:connector-curvature="0"
         style="fill:#0093d5" />
      <path
         class="cls-1"
         d="m 105.07,123.32 c 3.6,1.82 6.92,4.34 8.31,9.11 0.61,-7.9 -3.82,-11.32 -8.21,-13.63 0,0.01 -0.1,4.53 -0.1,4.52 z"
         id="path10"
         inkscape:connector-curvature="0"
         style="fill:#0093d5" />
      <path
         class="cls-1"
         d="m 129,43.2 c 0,-7.17 -5.2,-15.13 -17.95,-17.94 a 30.69,30.69 0 0 0 -3.89,-0.45 c 0,1.08 -0.08,3.56 -0.08,3.56 0,0.78 -0.08,3.65 -0.1,4.27 a 18,18 0 0 1 2.45,0.34 c 7.41,1.77 10.06,6 10.06,10.22 0,6.81 -5.82,9.38 -13,11.32 l -2.37,0.62 c -2.17,0.54 -4.4,1.06 -6.61,1.65 -0.79,0.21 -1.57,0.44 -2.35,0.67 v 0 c -7.93,2.42 -14.75,6.24 -14.75,16 0,9.76 7.78,13.34 15.37,15.68 q -0.07,-4.19 -0.16,-8.42 c -3.35,-1.57 -5.71,-3.64 -5.71,-7.12 0,-3.48 2.15,-5.46 5.44,-7 0.73,-0.33 1.51,-0.63 2.34,-0.91 1.89,-0.64 4,-1.19 6.25,-1.73 l 2.37,-0.57 v 0 C 117,60.89 129,57.54 129,43.2 Z"
         id="path12"
         inkscape:connector-curvature="0"
         style="fill:#0093d5" />
      <path
         class="cls-1"
         d="m 90.56,111.67 c 0,3.92 2.9,6 5.79,7.67 0,-0.66 -0.12,-6.73 -0.12,-6.83 0.06,-1.21 1.23,-1.94 2.18,-2.39 a 47.05,47.05 0 0 1 4.59,-1.75 c 0.86,-0.3 1.59,-0.59 2.41,-0.83 v 0 c 5.8,-1.75 12.51,-4 12.51,-11 0,-7 -5.75,-10 -12,-12.13 0,2.25 -0.11,5.54 -0.16,7.81 2.66,1 4.42,2.31 4.42,4.32 0,2.53 -2.7,4 -4.61,4.72 -0.8,0.31 -2,0.71 -2.35,0.82 -1.54,0.48 -3.2,1 -4.75,1.6 a 22.79,22.79 0 0 0 -2.35,1 c -2.76,1.38 -5.57,3.41 -5.56,6.99 z"
         id="path14"
         inkscape:connector-curvature="0"
         style="fill:#0093d5" />
      <path
         class="cls-1"
         d="m 94.49,25.93 a 46.17,46.17 0 0 0 -7,2.85 c -2.5,0.83 -6,1 -9.67,4.94 A 49.49,49.49 0 0 0 74.49,38 c -1.1,1.58 -1.15,4.12 -2,5.49 -1.16,2 -0.88,3.11 -0.88,3.11 v 0.06 A 5.31,5.31 0 0 1 70.27,49.14 5.08,5.08 0 0 1 65.61,51 c 1.66,0.83 4,-0.33 4,-0.33 a 30.61,30.61 0 0 0 -0.88,3.3 c 1.86,-4.21 3.57,-5.75 4.1,-6.18 0.8,0.18 2.46,0.11 5.54,-1.66 3.48,-2 8.71,-5.25 10.19,-7.31 a 13.59,13.59 0 0 1 6.16,-4.65 C 94.61,31 94.55,28.26 94.49,25.93 Z M 79.81,39.08 78,39.47 80.16,36 l 2.52,0.08 z"
         id="path16"
         inkscape:connector-curvature="0"
         style="fill:#0093d5" />
      <path
         class="cls-1"
         d="m 101.68,111.18 c -0.34,0.12 -1.21,0.49 -1.76,0.68 -0.55,0.19 -1.32,0.51 -1.32,0.71 0,0.2 0.56,30.41 0.56,31.08 0,6.25 3.18,6.29 3.18,0 0,-0.45 0.64,-32.9 0.64,-32.9 0,0 -0.76,0.25 -1.3,0.43 z"
         id="path18"
         inkscape:connector-curvature="0"
         style="fill:#0093d5" />
      <path
         class="cls-1"
         d="m 98.38,101.16 c 1,-0.34 2,-0.64 2.9,-0.93 l 1.93,-0.6 c 0,-1.91 0.58,-28.33 0.68,-33.13 a 60.72,60.72 0 0 0 -6.15,1.77 c 0.07,3.6 0.59,30.01 0.64,32.89 z"
         id="path20"
         inkscape:connector-curvature="0"
         style="fill:#0093d5" />
      <path
         class="cls-1"
         d="m 101,0 c -8.94,0 -5.14,13.26 -4.43,17.58 0,0.21 0.72,30 0.86,36.79 1.36,-0.36 2.71,-0.69 4,-1 l 2.7,-0.68 c 0.13,-6.57 0.79,-35 0.81,-35.15 C 105.53,12.91 110.21,0 101,0 Z"
         id="path22"
         inkscape:connector-curvature="0"
         style="fill:#0093d5" />
    </g>
  </g>
</svg>