<?xml version="1.0" encoding="UTF-8" standalone="no"?>
<!-- Generator: Adobe Illustrator 23.0.3, SVG Export Plug-In . SVG Version: 6.00 Build 0)  -->

<svg
   xmlns:dc="http://purl.org/dc/elements/1.1/"
   xmlns:cc="http://creativecommons.org/ns#"
   xmlns:rdf="http://www.w3.org/1999/02/22-rdf-syntax-ns#"
   xmlns:svg="http://www.w3.org/2000/svg"
   xmlns="http://www.w3.org/2000/svg"
   xmlns:sodipodi="http://sodipodi.sourceforge.net/DTD/sodipodi-0.dtd"
   xmlns:inkscape="http://www.inkscape.org/namespaces/inkscape"
   version="1.1"
   id="Layer_1"
   x="0px"
   y="0px"
   viewBox="0 0 542.88 64.334701"
   width="322.81503"
   height="91.333923"
   xml:space="preserve"
   preserveAspectRatio="xMinYMid meet"
   sodipodi:docname="lulogo.svg"
   inkscape:version="0.92.5 (2060ec1f9f, 2020-04-08)"><metadata
   id="metadata127"><rdf:RDF><cc:Work
       rdf:about=""><dc:format>image/svg+xml</dc:format><dc:type
         rdf:resource="http://purl.org/dc/dcmitype/StillImage" /><dc:title></dc:title></cc:Work></rdf:RDF></metadata><defs
   id="defs125" /><sodipodi:namedview
   pagecolor="#ffffff"
   bordercolor="#666666"
   borderopacity="1"
   objecttolerance="10"
   gridtolerance="10"
   guidetolerance="10"
   inkscape:pageopacity="0"
   inkscape:pageshadow="2"
   inkscape:window-width="1351"
   inkscape:window-height="698"
   id="namedview123"
   showgrid="false"
   inkscape:zoom="2.5581421"
   inkscape:cx="192.82375"
   inkscape:cy="38.401107"
   inkscape:window-x="1673"
   inkscape:window-y="61"
   inkscape:window-maximized="0"
   inkscape:current-layer="Layer_1"
   fit-margin-top="7.6"
   fit-margin-left="0"
   fit-margin-right="0"
   fit-margin-bottom="2" />
<style
   type="text/css"
   id="style2">
	.st0{fill:#B0B7BC;}
	.st1{fill:#B5121B;}
	.st2{fill:#FFFFFF;}
	.st3{fill:#B41F29;}
	.st4{fill:#58595B;}
</style>


<g
   id="g987"
   transform="matrix(1.5,0,0,1.5,-0.43499999,-31.236469)"><g
     id="g40">
	<path
   style="fill:#b0b7bc"
   inkscape:connector-curvature="0"
   id="path4"
   d="m 72.68,30.42 v 6.72 c 0,12.47 -6.12,40.07 -36.2,54.77 C 6.41,77.21 0.29,49.6 0.29,37.13 v -6.72 h 72.39 z"
   class="st0" />
	<path
   style="fill:#b5121b"
   inkscape:connector-curvature="0"
   id="path6"
   d="m 36.48,0.28 c 0,0 23.62,-0.34 36.2,4.61 V 30.42 H 0.29 V 4.89 C 12.86,-0.06 36.48,0.28 36.48,0.28"
   class="st1" />
	<path
   style="fill:#ffffff"
   inkscape:connector-curvature="0"
   id="path8"
   d="m 18.66,8.13 c 0.31,0.25 0.67,0.43 1.03,0.53 0.36,0.1 0.73,0.13 1.08,0.13 0.7,-0.01 1.35,-0.14 1.99,-0.25 0.64,-0.11 1.28,-0.22 1.92,-0.21 0.63,0 1.28,0.15 1.82,0.55 C 26.02,8.41 25.36,8.17 24.7,8.08 24.04,7.99 23.37,8.02 22.72,8.05 c -0.65,0.03 -1.3,0.07 -1.9,0 C 20.21,7.98 19.67,7.77 19.32,7.38 L 19.27,7.33 C 19.06,7.16 18.76,7.19 18.59,7.41 18.42,7.63 18.46,7.94 18.66,8.12 Z m 16.48,19.1 c -0.24,0.3 -0.28,0.66 -0.27,0.9 0,0.01 0,0.02 0,0.03 0.02,-0.03 0.04,-0.07 0.06,-0.11 0.09,-0.17 0.19,-0.3 0.29,-0.4 -0.05,-0.11 -0.07,-0.22 -0.08,-0.34 -0.01,-0.04 0,-0.06 0,-0.08 m 0.56,-1.16 c -0.13,-0.21 -0.27,-0.53 -0.27,-0.94 0,-0.06 0,-0.12 0.01,-0.18 v -0.01 c -0.14,-0.01 -0.34,-0.03 -0.46,-0.03 -0.02,0 -0.05,0 -0.06,0 h -0.04 c -0.04,0 -0.08,0 -0.11,0 -0.06,0 -0.1,0.01 -0.14,0.06 -0.05,0.05 -0.11,0.16 -0.17,0.36 -0.03,0.11 -0.08,0.28 -0.08,0.43 0,0.07 0.01,0.14 0.04,0.19 0.03,0.05 0.08,0.1 0.16,0.13 0.34,0.13 0.59,0.18 0.79,0.18 h 0.03 c 0.05,0 0.13,-0.02 0.19,-0.05 0.04,-0.03 0.09,-0.08 0.11,-0.14 m 0.13,0.48 c -0.07,0.05 -0.12,0.11 -0.16,0.15 -0.02,0.02 -0.06,0.06 -0.09,0.1 -0.03,0.04 -0.05,0.08 -0.05,0.1 -0.01,0.04 -0.03,0.1 -0.03,0.17 0,0.09 0.02,0.2 0.1,0.31 0.07,0.11 0.21,0.23 0.44,0.33 0.18,0.08 0.33,0.11 0.45,0.11 0.24,0 0.38,-0.11 0.49,-0.25 0.09,-0.12 0.13,-0.26 0.16,-0.36 -0.41,-0.19 -0.81,-0.44 -1.11,-0.76 -0.07,0.01 -0.14,0.05 -0.2,0.1 m -2.4,-1.06 c -0.1,0.13 -0.16,0.26 -0.2,0.36 0.03,-0.02 0.06,-0.05 0.09,-0.08 0.25,-0.19 0.48,-0.27 0.67,-0.3 0.02,-0.09 0.04,-0.16 0.05,-0.21 l 0.01,-0.04 v 0 c 0.02,-0.07 0.04,-0.13 0.07,-0.19 -0.32,0.08 -0.54,0.26 -0.69,0.46 M 48.4,22.54 c -0.21,-0.04 -0.48,-0.11 -0.74,-0.26 -0.49,-0.29 -0.83,-0.87 -0.83,-1.32 0,-0.47 0.28,-1.09 0.69,-1.54 0.3,-0.32 0.64,-0.59 0.91,-0.78 -0.01,0 -1.15,-1.17 -1.26,-1.27 -0.37,-0.32 -0.77,-0.64 -1.26,-0.77 -0.53,-0.14 -1.01,0.02 -1.48,0.26 -0.29,0.15 -0.6,0.29 -0.88,0.46 -1.14,0.71 -1.69,2 -1.87,2.49 0.05,-0.04 0.1,-0.08 0.16,-0.13 0.18,-0.13 0.39,-0.28 0.53,-0.32 0.05,-0.01 0.09,-0.02 0.13,-0.02 0.09,0 0.17,0.04 0.2,0.1 0.04,0.06 0.05,0.12 0.05,0.19 0,0.1 -0.03,0.18 -0.03,0.19 0,0 -0.02,0.06 -0.05,0.16 -0.03,0.1 -0.07,0.25 -0.12,0.42 -0.07,0.28 -0.13,0.64 -0.16,0.98 0.23,-0.33 0.45,-0.57 0.46,-0.58 0,0 0.02,-0.02 0.05,-0.04 0.03,-0.02 0.08,-0.05 0.13,-0.05 0.04,0 0.08,0.02 0.12,0.05 0.03,0.03 0.04,0.06 0.05,0.1 0.01,0.04 0.01,0.08 0.01,0.13 0,0.43 -0.09,0.87 0.13,1.27 0.19,0.35 0.32,0.63 0.13,1.02 -0.15,0.32 -0.49,0.61 -0.78,0.81 -0.18,0.12 -0.38,0.2 -0.66,0.23 -0.24,0.03 -0.63,0 -0.97,0.11 -0.42,0.14 -0.76,0.47 -1.2,0.57 -0.12,0.03 -0.26,0.04 -0.4,0.04 -0.49,0 -1.09,-0.16 -1.44,-0.54 -0.18,-0.19 -0.25,-0.41 -0.25,-0.61 0,-0.54 0.45,-0.99 0.49,-1.03 l 0.02,-0.04 c 0.02,-0.03 0.03,-0.07 0.03,-0.09 l -0.02,-0.04 c -0.01,-0.01 -0.04,-0.02 -0.11,-0.02 -0.05,0 -0.11,0 -0.18,0 -0.41,0 -1.11,-0.02 -1.11,-0.02 -0.01,0 -0.27,0.01 -0.47,0.16 l -0.02,0.03 c -0.02,0.02 -0.04,0.05 -0.07,0.09 -0.05,0.07 -0.12,0.18 -0.16,0.3 -0.07,0.19 -0.02,0.45 -0.09,0.8 -0.06,0.32 -0.24,0.7 -0.27,0.96 0,0.05 -0.01,0.09 -0.01,0.14 0,0.37 0.15,0.65 0.27,0.81 0.43,0.59 1.22,0.97 1.97,1.19 0.75,0.23 1.46,0.31 1.74,0.34 0.06,0.01 0.1,0.01 0.11,0.01 0.11,-0.03 1.26,-0.34 1.67,-0.41 0.39,-0.07 1.38,-0.19 1.8,-0.24 0,0 -0.63,-0.32 -0.64,-0.32 0,0 -0.04,-0.02 -0.08,-0.06 -0.04,-0.04 -0.08,-0.1 -0.08,-0.18 0,-0.03 0.01,-0.06 0.02,-0.09 0.03,-0.06 0.07,-0.1 0.12,-0.12 0.05,-0.02 0.1,-0.02 0.14,-0.02 0.06,0 0.11,0.01 0.12,0.01 0.02,0 0.17,0.02 0.4,0.03 0.24,0.02 0.57,0.03 0.9,0.03 0.25,0 0.5,-0.01 0.72,-0.04 0.52,-0.06 0.8,-0.29 0.92,-0.41 -0.03,-0.01 -0.06,-0.01 -0.09,-0.02 -0.11,-0.02 -0.23,-0.05 -0.29,-0.08 -0.09,-0.04 -0.24,-0.11 -0.32,-0.16 -0.03,-0.02 -0.07,-0.05 -0.1,-0.09 -0.03,-0.04 -0.06,-0.1 -0.06,-0.16 v -0.03 c 0.01,-0.05 0.04,-0.09 0.07,-0.11 0.03,-0.02 0.07,-0.04 0.1,-0.06 0.07,-0.03 0.13,-0.04 0.14,-0.04 0,0 0.2,-0.02 0.46,-0.07 0.26,-0.04 0.58,-0.11 0.82,-0.2 0.34,-0.13 0.75,-0.41 0.93,-0.54 -0.06,-0.02 -0.13,-0.05 -0.22,-0.09 -0.18,-0.08 -0.39,-0.19 -0.51,-0.33 0,-0.01 -0.03,-0.03 -0.07,-0.08 -0.03,-0.05 -0.07,-0.1 -0.07,-0.18 l 0.01,-0.05 c 0.02,-0.04 0.05,-0.07 0.08,-0.08 0.03,-0.02 0.07,-0.04 0.1,-0.05 0.07,-0.02 0.13,-0.03 0.13,-0.03 0,0 0.06,-0.01 0.14,-0.03 0.09,-0.02 0.22,-0.05 0.36,-0.08 0.28,-0.07 0.63,-0.18 0.86,-0.3 0.14,-0.07 0.23,-0.15 0.26,-0.22 -0.01,0 -0.02,-0.01 -0.04,-0.01 0,0 -0.09,-0.01 -0.19,-0.03 m 15.03,2.49 c -0.06,-0.09 -0.1,-0.21 -0.1,-0.33 0,-0.28 0.18,-0.5 0.33,-0.72 0.02,-0.03 0.04,-0.06 0.05,-0.09 0.13,-0.23 0.2,-0.47 0.2,-0.74 0,-0.37 -0.12,-0.83 -0.59,-1.3 -0.01,-0.01 -0.09,-0.11 -0.09,-0.37 0,-0.19 0.05,-0.47 0.2,-0.87 0.14,-0.36 0.29,-0.67 0.29,-0.99 0,-0.16 -0.04,-0.32 -0.12,-0.49 -0.06,0.27 -0.14,0.87 -0.52,0.86 -0.28,-0.01 -0.26,-0.36 -0.23,-0.55 0.01,-0.04 0.02,-0.1 0.03,-0.18 0.02,-0.15 0.04,-0.37 0.04,-0.61 0,-0.35 -0.04,-0.75 -0.18,-1.12 -0.06,0.25 -0.12,0.43 -0.22,0.52 -0.04,0.04 -0.09,0.07 -0.16,0.07 -0.08,0 -0.15,-0.04 -0.19,-0.1 -0.04,-0.06 -0.07,-0.12 -0.09,-0.18 -0.04,-0.12 -0.05,-0.24 -0.05,-0.25 0,-0.01 -0.05,-0.3 -0.13,-0.64 -0.07,-0.32 -0.17,-0.68 -0.26,-0.86 -0.02,0.12 -0.05,0.26 -0.08,0.39 -0.04,0.17 -0.07,0.44 -0.29,0.48 -0.15,0.03 -0.2,-0.12 -0.23,-0.24 -0.04,-0.16 -0.06,-0.31 -0.1,-0.47 -0.06,-0.24 -0.15,-0.54 -0.23,-0.76 -0.05,-0.13 -0.11,-0.22 -0.15,-0.26 -0.01,0.03 -0.03,0.06 -0.05,0.1 -0.05,0.09 -0.11,0.22 -0.2,0.37 -0.18,0.28 -0.43,0.63 -0.75,0.87 -0.65,0.49 -1.16,0.54 -1.57,0.54 -0.65,0 -1.73,-0.21 -2.66,-0.82 -0.53,-0.35 -1.46,-0.88 -2.03,-1.32 l -0.15,-0.12 0.2,0.01 c 0.2,0.01 0.41,0.02 0.62,0.02 0.91,0 1.89,-0.1 2.55,-0.42 0.81,-0.4 1.21,-0.9 1.59,-1.41 0.38,-0.51 0.72,-1.02 1.43,-1.41 0.43,-0.24 0.89,-0.31 1.3,-0.31 0.49,0 0.9,0.11 1.09,0.17 -0.17,-0.64 -0.93,-1.19 -1.84,-1.19 -0.66,0 -1.39,0.28 -2.05,1.02 l -0.11,0.12 v -0.16 -0.03 c 0,-0.02 0,-0.05 -0.01,-0.08 C 57.91,11.11 57.9,11.01 57.87,10.9 57.81,10.66 57.69,10.35 57.47,10.03 57.02,9.4 56.13,8.77 54.33,8.76 c -0.14,0 -0.29,0.01 -0.44,0.01 -1.46,0.08 -4.23,0.96 -6.76,1.45 -2.48,0.48 -6.14,0.71 -7.7,0.71 -0.59,0 -1.17,-0.05 -1.68,-0.17 -0.5,-0.12 -0.93,-0.32 -1.19,-0.61 -0.18,-0.19 -0.28,-0.44 -0.28,-0.72 0,-0.56 0.3,-0.9 0.69,-1.08 0.39,-0.18 0.86,-0.22 1.24,-0.22 1.21,0 2.86,0.74 4.2,1.23 0.94,0.35 1.87,0.35 2.39,0.35 1.38,0 3.14,-0.74 4.02,-1.11 0.69,-0.29 1.29,-0.5 2.33,-0.5 0.24,0 0.51,0.01 0.81,0.04 C 51.59,7.73 50.77,7.3 49.7,7.3 49.02,7.3 48.23,7.48 47.4,7.94 L 47.35,7.97 47.32,7.91 C 47.28,7.84 47.26,7.75 47.26,7.67 47.26,7.45 47.37,7.2 47.58,6.98 47.76,6.78 48.02,6.6 48.33,6.48 48.13,6.37 47.79,6.25 47.36,6.15 46.85,6.03 46.2,5.95 45.48,5.95 c -0.08,0 -0.15,0 -0.24,0 -1.16,0.03 -1.93,0.32 -2.7,0.61 -0.76,0.29 -1.51,0.57 -2.6,0.57 -0.09,0 -0.19,0 -0.29,-0.01 C 39.4,7.11 39.18,7.1 38.96,7.1 c -1.05,0 -2.01,0.13 -2.71,0.46 -0.7,0.34 -1.12,0.87 -1.12,1.7 0,0.72 0.42,1.32 1.19,1.75 0.77,0.43 1.89,0.68 3.26,0.68 0.03,0 0.06,0 0.09,0 3.47,-0.03 7.63,-0.84 10.16,-1.26 0.83,-0.14 2.62,-0.62 4.13,-0.62 0.69,0 1.33,0.1 1.81,0.39 0.48,0.29 0.78,0.77 0.78,1.5 0,0.36 -0.08,0.81 -0.4,1.17 -0.31,0.36 -0.85,0.62 -1.74,0.62 -1.02,0 -2.2,-0.29 -3.59,-0.5 l -0.11,-0.02 c -0.29,-0.04 -0.61,-0.09 -0.94,-0.13 -2.05,-0.24 -4.69,-0.43 -6.18,-0.43 -0.14,0 -0.28,0 -0.39,0.01 -1.14,0.04 -3.32,0.17 -5.38,0.5 -2.14,0.34 -4.14,0.81 -4.76,0.96 v 0.08 l -0.02,1.96 -0.55,-0.89 c 0,0.04 0,0.08 0,0.11 0,0.83 -0.18,1.53 -0.34,1.97 -0.09,0.26 -0.18,0.45 -0.23,0.57 -0.02,0.04 -0.04,0.08 -0.05,0.11 l -0.45,0.87 -0.41,-0.69 c -0.14,0.84 -0.49,1.6 -1.05,2.23 -0.12,0.14 -0.4,0.4 -0.69,0.64 -0.02,0.02 -0.05,0.04 -0.07,0.06 -0.1,0.07 -0.19,0.13 -0.25,0.17 l -0.83,0.5 V 20.1 c -0.17,0.23 -0.34,0.42 -0.52,0.57 -0.36,0.3 -0.73,0.45 -1.12,0.45 -0.13,0 -0.26,-0.02 -0.37,-0.05 l -0.69,-0.22 0.37,-0.6 c 0.03,-0.05 0.09,-0.15 0.15,-0.28 0.14,-0.29 0.17,-0.47 0.17,-0.57 0,-0.03 0,-0.09 -0.03,-0.1 -0.04,-0.04 -0.18,-0.08 -0.4,-0.08 -0.09,0 -0.19,0.01 -0.29,0.02 -0.43,0.05 -1.26,0.27 -2.82,1.08 -0.81,0.42 -1.59,0.87 -2.36,1.35 -0.49,0.3 -0.99,0.59 -1.5,0.86 -0.73,0.39 -1.5,0.73 -2.33,0.86 -0.23,0.04 -0.45,0.06 -0.69,0.06 -0.35,0 -0.66,-0.09 -0.86,-0.33 -0.36,-0.02 -0.68,-0.12 -0.97,-0.26 -0.33,-0.16 -0.6,-0.37 -0.82,-0.58 -0.16,-0.16 -0.29,-0.31 -0.4,-0.44 -0.4,0.35 -0.76,0.83 -0.8,1.41 -0.01,0.14 -0.01,0.28 -0.01,0.43 0,0.07 0,0.15 0,0.23 0.07,0 0.15,0 0.22,0 1.6,0 2.49,-0.25 2.53,-0.26 l 0.05,-0.01 c 0.09,0 0.18,0.06 0.21,0.15 l 0.01,0.06 c 0,0.09 -0.06,0.18 -0.15,0.21 -0.02,0 -0.94,0.28 -2.65,0.28 -0.06,0 -0.12,0 -0.18,0 0.05,0.45 0.16,0.87 0.36,1.16 0.24,0.37 0.6,0.48 0.75,0.48 0,0 0.04,-0.01 0.05,-0.01 1.3,-0.9 2.15,-1.2 2.17,-1.21 0.02,-0.01 0.05,-0.01 0.07,-0.01 0.09,0 0.17,0.06 0.2,0.14 0.01,0.02 0.01,0.05 0.01,0.07 0,0.09 -0.06,0.17 -0.15,0.21 l -0.04,0.02 c -0.03,0.01 -0.09,0.04 -0.16,0.07 -0.14,0.06 -0.35,0.16 -0.61,0.3 -0.17,0.09 -0.36,0.2 -0.58,0.33 -0.01,0.01 -0.02,0.03 -0.02,0.05 0,0.03 0.01,0.09 0.06,0.16 0.19,0.28 0.39,0.65 0.53,0.85 0.1,0.15 0.3,0.31 0.53,0.31 0.22,0 0.5,-0.14 0.82,-0.6 0.2,-0.25 0.44,-0.46 0.94,-0.47 l 1.17,-0.06 h 0.02 c 0.01,0 0.03,0 0.06,-0.01 0.05,-0.01 0.12,-0.03 0.2,-0.05 0.16,-0.05 0.34,-0.15 0.47,-0.33 0.08,-0.12 0.16,-0.2 0.25,-0.26 0.09,-0.06 0.2,-0.08 0.31,-0.08 0.2,0 0.44,0.06 0.78,0.15 0.5,0.12 0.9,0.2 1.15,0.2 0.09,0 0.15,-0.01 0.2,-0.03 -0.03,-0.04 -0.08,-0.08 -0.13,-0.13 -0.11,-0.1 -0.24,-0.23 -0.33,-0.36 -0.06,-0.08 -0.1,-0.17 -0.11,-0.25 0,-0.05 0.02,-0.09 0.05,-0.13 0.07,-0.07 0.15,-0.11 0.22,-0.11 0.08,0 0.14,0.04 0.19,0.08 0.05,0.04 0.09,0.08 0.11,0.09 0.49,0.36 1.41,0.59 2.14,0.58 0.21,0 0.4,-0.02 0.57,-0.05 -0.13,-0.07 -0.31,-0.19 -0.43,-0.32 -0.06,-0.07 -0.12,-0.15 -0.12,-0.24 0,-0.05 0.02,-0.1 0.06,-0.14 0.06,-0.06 0.14,-0.06 0.24,-0.06 0.22,0 0.51,0.07 0.51,0.07 0,0 0.05,0.01 0.13,0.03 0.08,0.02 0.2,0.04 0.34,0.06 0.28,0.05 0.65,0.09 1.01,0.09 0.39,0 0.75,-0.06 0.96,-0.21 -0.37,-0.35 -0.64,-0.61 -0.64,-0.61 -0.01,-0.01 -0.09,-0.08 -0.09,-0.2 0,-0.05 0.02,-0.11 0.06,-0.16 0.05,-0.07 0.13,-0.08 0.19,-0.08 0.15,0 0.29,0.08 0.31,0.09 0.01,0 0.06,0.02 0.16,0.06 0.1,0.03 0.25,0.08 0.42,0.12 0.35,0.09 0.8,0.18 1.23,0.18 0.36,0 0.7,-0.07 0.94,-0.25 -0.29,-0.12 -0.45,-0.28 -0.46,-0.29 -0.01,-0.01 -0.07,-0.08 -0.07,-0.19 0,-0.04 0.01,-0.08 0.03,-0.13 0.04,-0.06 0.09,-0.1 0.15,-0.12 0.06,-0.02 0.12,-0.03 0.17,-0.03 0.03,0 0.06,0 0.09,0.01 0.13,0.01 0.26,0.02 0.38,0.02 0.7,0 1.09,-0.2 1.22,-0.28 L 30.2,21.99 c 0.08,-0.04 0.27,-0.14 0.3,-0.15 0.08,-0.04 0.2,-0.12 0.34,-0.16 0.27,-0.07 0.65,-0.17 1.12,-0.32 0.93,-0.3 2.18,-0.77 3.46,-1.48 2.51,-1.39 4.99,-3.1 7.44,-3.69 0.6,-0.14 1.21,-0.2 1.78,-0.2 0.67,0 1.28,0.08 1.74,0.17 0.44,0.09 0.97,0.5 1.52,1.02 0.55,0.52 1.12,1.15 1.61,1.68 0.57,0.62 1.06,1.07 1.27,1.25 0.07,0.06 0.1,0.09 0.11,0.09 0.01,0 0.08,0.06 0.2,0.14 0.13,0.09 0.3,0.21 0.51,0.33 0.39,0.23 0.88,0.48 1.31,0.56 -0.02,-0.14 -0.22,-1.05 0.19,-0.87 0.16,0.07 0.26,0.25 0.39,0.37 0.16,0.16 0.34,0.3 0.52,0.42 0.3,0.2 0.63,0.36 0.92,0.36 0.1,0 0.19,-0.02 0.28,-0.06 -0.18,-0.22 -0.33,-0.4 -0.33,-0.4 0,0 -0.06,-0.06 -0.06,-0.15 0,-0.06 0.03,-0.12 0.1,-0.16 0.07,-0.04 0.17,-0.06 0.32,-0.06 0.05,0 0.11,0.01 0.18,0.01 0.12,0.01 0.32,0.02 0.55,0.02 0.43,0 0.99,-0.03 1.49,-0.11 0.69,-0.12 1.29,-0.32 1.55,-0.42 0.08,-0.03 0.13,-0.05 0.13,-0.05 0.01,0 0.18,-0.07 0.38,-0.07 0.1,0 0.22,0.02 0.32,0.09 0.14,0.1 0.24,0.26 0.32,0.43 0.08,0.17 0.13,0.34 0.18,0.44 0.22,0.49 0.62,1.06 0.62,2 0,0.14 -0.01,0.28 -0.03,0.44 -0.03,0.25 -0.09,0.79 -0.36,1.17 -0.46,0.65 -0.93,0.68 -0.97,0.68 -0.02,0 -0.11,0.02 -0.24,0.02 -0.08,0 -0.18,-0.01 -0.28,-0.02 -0.33,-0.06 -0.65,-0.2 -0.88,-0.2 -0.07,0 -0.14,0.01 -0.2,0.05 -0.27,0.13 -0.33,0.32 -0.34,0.51 0,0.22 0.1,0.42 0.14,0.5 l 0.01,0.02 c 0,0.01 0.01,0.03 0.02,0.06 0.02,0.05 0.06,0.11 0.11,0.17 0.11,0.12 0.28,0.25 0.57,0.25 0.03,0 0.06,0 0.1,-0.01 0.22,-0.02 0.44,-0.15 0.62,-0.3 0.17,-0.15 0.3,-0.31 0.35,-0.38 l 0.02,-0.03 0.42,-0.59 c 0.01,-0.01 0.02,-0.03 0.05,-0.05 0.03,-0.03 0.08,-0.06 0.15,-0.06 0.03,0 0.07,0.01 0.1,0.03 0.08,0.04 0.1,0.12 0.1,0.18 0,0.05 -0.01,0.09 -0.02,0.12 -0.01,0.03 -0.02,0.06 -0.04,0.07 -0.01,0.01 -0.04,0.05 -0.09,0.12 -0.05,0.06 -0.12,0.14 -0.18,0.22 -0.13,0.16 -0.26,0.32 -0.27,0.32 l -0.01,0.02 c -0.01,0.02 -0.02,0.04 -0.02,0.07 0,0.05 0.02,0.11 0.1,0.19 0.12,0.11 0.23,0.24 0.33,0.36 0.08,0.1 0.15,0.21 0.28,0.25 0.28,0.08 0.55,-0.25 0.72,-0.43 0.13,-0.14 0.27,-0.31 0.33,-0.49 0.09,-0.27 0.11,-0.57 0.11,-0.8 0,-0.14 -0.01,-0.26 -0.02,-0.34 -0.01,-0.09 -0.02,-0.13 -0.02,-0.13 0,-0.01 -0.01,-0.03 -0.01,-0.07 0,-0.04 0.01,-0.09 0.04,-0.13 0.03,-0.05 0.08,-0.08 0.16,-0.09 h 0.05 c 0.1,0 0.17,0.06 0.19,0.11 0.03,0.05 0.03,0.1 0.03,0.11 v 0.21 c 0,0.16 0,0.4 -0.01,0.62 -0.01,0.22 -0.03,0.42 -0.07,0.55 -0.01,0.03 -0.02,0.05 -0.02,0.07 0,0.03 0.01,0.05 0.03,0.07 0.02,0.02 0.04,0.03 0.07,0.04 0.05,0.02 0.12,0.03 0.14,0.02 0,0 1.01,-0.03 1.01,-0.03 h 0.02 c 0.04,0 0.17,-0.01 0.29,-0.08 0.12,-0.07 0.23,-0.2 0.26,-0.48 0.01,-0.05 0.01,-0.11 0.01,-0.15 0,-0.22 -0.06,-0.34 -0.13,-0.44 C 63.59,25.2 63.5,25.13 63.43,25.03 M 34.51,24.34 c 0,0.02 0,0.04 0,0.07 0.01,0.06 0.02,0.08 0.07,0.11 0.06,0.03 0.17,0.06 0.38,0.08 0.1,0.01 0.19,0.02 0.27,0.02 0.13,0 0.22,-0.02 0.29,-0.04 0.02,-0.07 0.04,-0.14 0.06,-0.2 0.05,-0.14 0.1,-0.29 0.12,-0.41 0.03,-0.13 0.03,-0.25 0.03,-0.36 0,-0.08 0.01,-0.16 0.02,-0.23 -0.14,-0.14 -0.37,-0.35 -0.47,-0.42 -0.07,-0.05 -0.15,-0.1 -0.26,-0.1 -0.08,0 -0.17,0.03 -0.28,0.1 -0.11,0.08 -0.23,0.16 -0.31,0.24 -0.09,0.08 -0.14,0.17 -0.13,0.25 0,0.05 0.02,0.11 0.06,0.18 0.14,0.21 0.16,0.38 0.16,0.52 0,0.06 -0.01,0.13 -0.01,0.19 m -0.46,-1.65 c -0.35,0 -0.64,0.16 -0.81,0.28 0.04,0 0.08,-0.01 0.12,-0.02 0.06,-0.01 0.12,-0.01 0.18,-0.01 0.19,0 0.35,0.04 0.48,0.09 0.09,-0.12 0.21,-0.23 0.31,-0.3 -0.09,-0.02 -0.19,-0.04 -0.28,-0.04 m -20.49,3.47 c -0.3,0.29 -0.38,0.62 -0.38,0.9 0,0.16 0.03,0.29 0.05,0.4 0.01,-0.04 0.02,-0.08 0.03,-0.12 0.11,-0.39 0.34,-0.63 0.54,-0.78 -0.05,-0.09 -0.11,-0.18 -0.16,-0.25 -0.04,-0.05 -0.06,-0.1 -0.08,-0.15 m 49.05,0.83 v 0 l -0.02,-0.1 -0.37,0.01 v 0 h -0.01 c -0.04,0 -0.1,-0.01 -0.16,-0.02 0.12,0.43 0.34,0.67 0.58,0.81 0.26,0.15 0.53,0.19 0.73,0.19 0.02,0 0.03,0 0.04,0 -0.03,-0.02 -0.07,-0.04 -0.11,-0.06 -0.5,-0.27 -0.64,-0.65 -0.68,-0.83 m -3,-0.11 c -0.05,-0.04 -0.08,-0.09 -0.11,-0.13 -0.18,0.28 -0.24,0.54 -0.24,0.76 0,0.43 0.24,0.75 0.41,0.93 -0.01,-0.04 -0.02,-0.07 -0.03,-0.12 -0.04,-0.14 -0.05,-0.27 -0.05,-0.39 0,-0.34 0.12,-0.57 0.2,-0.68 v 0 l 0.08,-0.1 C 59.86,27.14 59.85,27.12 59.84,27.11 59.76,27.03 59.69,26.94 59.61,26.88 M 37.77,22.27 c 0.09,0 0.18,0 0.26,0 0.06,0 0.12,0 0.17,0 v 0 h 0.02 c 0.04,0 0.08,0.01 0.11,0.01 -0.13,-0.4 -0.34,-0.65 -0.57,-0.79 -0.24,-0.15 -0.51,-0.19 -0.72,-0.19 -0.06,0 -0.11,0.01 -0.16,0.01 0.04,0.01 0.07,0.03 0.11,0.05 0.52,0.24 0.69,0.61 0.74,0.79 v 0 z m 18.8,3.65 c -0.14,0.25 -0.18,0.52 -0.18,0.71 v 0.02 c 0.02,-0.03 0.04,-0.07 0.06,-0.11 0.27,-0.48 0.63,-0.63 0.82,-0.67 -0.01,-0.07 -0.02,-0.14 -0.02,-0.22 0,-0.09 0.01,-0.19 0.04,-0.29 0.01,-0.01 0.01,-0.02 0.01,-0.03 -0.38,0.15 -0.6,0.36 -0.73,0.59 m 1.56,-2 c 0,0.25 0.17,0.54 0.32,0.72 0.12,0.13 0.28,0.16 0.44,0.2 0.18,0.04 0.36,0.08 0.54,0.07 0.15,-0.01 0.53,-0.07 0.37,-0.27 -0.09,-0.11 -0.17,-0.19 -0.23,-0.32 -0.07,-0.14 -0.12,-0.28 -0.18,-0.42 -0.08,-0.2 -0.12,-0.41 -0.15,-0.63 -0.01,-0.06 -0.04,-0.16 -0.09,-0.23 -0.05,-0.07 -0.1,-0.12 -0.16,-0.11 -0.05,0 -0.12,0.03 -0.21,0.12 -0.34,0.37 -0.41,0.43 -0.54,0.58 -0.07,0.09 -0.11,0.18 -0.11,0.29 m 0.08,-0.89 0.03,0.02 c 0.07,-0.07 0.14,-0.15 0.25,-0.27 0.04,-0.05 0.09,-0.08 0.13,-0.12 -0.22,-0.1 -0.42,-0.14 -0.6,-0.14 -0.32,0 -0.58,0.13 -0.76,0.27 -0.1,0.08 -0.18,0.16 -0.23,0.23 0.03,-0.01 0.07,-0.03 0.11,-0.04 0.19,-0.07 0.36,-0.09 0.51,-0.09 0.26,-0.01 0.45,0.07 0.56,0.14 z M 14.06,19.89 c -0.21,-0.13 -0.43,-0.18 -0.59,-0.2 0.03,0.02 0.06,0.05 0.1,0.07 0.43,0.32 0.52,0.68 0.54,0.88 0.03,0.01 0.05,0.02 0.07,0.02 l 0.04,0.02 0.01,0.01 0.03,0.02 v 0 c 0.01,0.01 0.21,0.16 0.42,0.34 -0.05,-0.64 -0.32,-0.98 -0.62,-1.16 m -2.29,1.83 c -0.34,0 -0.6,0.14 -0.79,0.29 -0.1,0.08 -0.18,0.17 -0.24,0.25 0.04,-0.02 0.07,-0.03 0.11,-0.05 0.19,-0.08 0.37,-0.1 0.53,-0.1 0.15,0 0.29,0.03 0.4,0.06 0.09,-0.13 0.19,-0.27 0.32,-0.4 -0.11,-0.04 -0.23,-0.05 -0.33,-0.05 m 2.94,0.11 v 0 l 0.01,-0.05 c 0,-0.06 -0.02,-0.16 -0.17,-0.29 C 14.43,21.38 14.29,21.27 14.18,21.18 14.09,21.11 14.02,21.06 14,21.04 h -0.01 c -0.02,0 -0.04,-0.01 -0.06,-0.01 -0.05,0 -0.12,0.01 -0.2,0.07 -0.02,0.01 -0.05,0.03 -0.09,0.05 -0.05,0.02 -0.11,0.06 -0.18,0.1 -0.14,0.08 -0.31,0.18 -0.49,0.31 0.03,0.04 0.06,0.08 0.1,0.12 0.22,0.26 0.56,0.58 0.97,0.78 0.18,0.09 0.37,0.15 0.58,0.19 -0.02,-0.08 -0.03,-0.16 -0.03,-0.24 0,-0.32 0.11,-0.56 0.12,-0.58 z M 12.17,9.28 c 0.19,0.69 0.86,2.25 1.18,2.99 0.1,0.24 0.17,0.39 0.17,0.4 0,0.01 0.17,0.36 0.18,0.75 0,0.19 -0.04,0.39 -0.16,0.56 -0.16,0.23 -0.29,0.41 -0.29,0.41 v 0 0 0.01 l -0.02,0.02 c -0.01,0.02 -0.03,0.04 -0.05,0.08 -0.03,0.07 -0.07,0.17 -0.07,0.29 0,0.12 0.03,0.27 0.13,0.45 0,0 0.12,0.22 0.27,0.47 0.15,0.25 0.32,0.54 0.41,0.68 0.04,0.05 0.07,0.1 0.11,0.14 0.03,0.04 0.06,0.06 0.08,0.07 l 0.01,-0.03 c 0.01,-0.04 0.02,-0.12 0.02,-0.24 0,-0.02 0,-0.04 0,-0.07 V 16.2 c 0,-0.16 0.02,-0.36 0.03,-0.5 0.01,-0.13 0.11,-0.21 0.22,-0.21 0.08,0 0.18,0.06 0.2,0.16 0.03,0.11 0.07,0.32 0.14,0.53 v 0 c 0,0 0.01,0.02 0.02,0.06 0.02,0.04 0.04,0.1 0.07,0.18 0.07,0.15 0.17,0.35 0.31,0.56 0.26,0.41 0.66,0.86 1.21,1.09 0,-0.07 0.01,-0.13 0.01,-0.19 0,-0.26 -0.02,-0.47 -0.02,-0.53 0,-0.02 0,-0.04 0,-0.06 0,-0.03 0,-0.07 0.02,-0.11 0.02,-0.04 0.06,-0.08 0.11,-0.08 v 0 h 0.01 c 0.04,0 0.08,0.02 0.11,0.04 0.03,0.02 0.06,0.05 0.08,0.07 0.03,0.03 0.05,0.06 0.07,0.08 v 0 l 0.02,0.03 c 0,0 0.03,0.04 0.08,0.12 0.05,0.08 0.13,0.19 0.22,0.32 0.19,0.26 0.46,0.62 0.78,0.98 0.58,0.65 1.33,1.31 2,1.46 -0.04,-0.19 -0.06,-0.38 -0.06,-0.56 0,-0.37 0.08,-0.75 0.22,-1.1 -0.07,0.05 -0.14,0.11 -0.19,0.16 l -0.96,0.8 0.05,-1.24 c 0.06,-1.25 0.46,-2.29 1.21,-3.09 0.23,-0.24 0.49,-0.46 0.76,-0.64 -0.1,-0.03 -0.2,-0.05 -0.28,-0.07 -0.05,-0.01 -0.09,-0.02 -0.13,-0.03 l -0.27,-0.08 c -1.64,-0.23 -4.04,-0.96 -6.31,-3.09 -0.27,-0.24 -0.55,-0.68 -0.55,-1.16 0,-0.25 0.08,-0.51 0.27,-0.74 0.19,-0.24 0.49,-0.45 0.94,-0.62 v 0 0 h 0.01 L 14.56,8.73 14.62,8.7 C 14.66,8.67 14.69,8.64 14.69,8.58 14.69,8.5 14.62,8.35 14.33,8.13 13.96,7.84 13.69,7.64 13.52,7.51 13.34,7.38 13.26,7.32 13.26,7.32 h -0.01 v 0 h -0.01 c -0.03,0 -0.09,0.02 -0.21,0.13 -0.2,0.2 -0.91,0.78 -0.91,1.52 0.01,0.09 0.02,0.2 0.05,0.31 M 25.91,5.25 c 0.13,0.05 0.26,0.14 0.38,0.22 0,0 0.04,0.03 0.04,0.03 l 0.04,-0.03 c 0,0 0.16,-0.13 0.32,-0.27 0.07,-0.06 0.35,-0.24 0.33,-0.35 -0.03,-0.18 -0.8,0.03 -0.92,0.06 -0.11,0.03 -0.2,0.07 -0.26,0.1 -0.03,0.02 -0.06,0.03 -0.08,0.05 l -0.03,0.03 c -0.12,0.11 0.14,0.14 0.18,0.16 m -2.7,1.44 V 6.66 c 0,-0.11 0.1,-0.29 0.17,-0.38 0.1,-0.15 0.28,-0.31 0.2,-0.5 -0.05,-0.12 -0.19,-0.18 -0.19,-0.32 0,-0.07 0.04,-0.13 0.11,-0.18 0.07,-0.05 0.18,-0.1 0.27,-0.13 0.32,-0.09 1.3,-0.44 1.31,-0.45 0.09,-0.09 0.12,-0.18 0.24,-0.28 0.12,-0.1 0.32,-0.21 0.73,-0.29 1.02,-0.21 3.83,-0.39 4.1,-0.41 0.08,0 0.19,0.05 0.31,0.14 0.17,0.13 0.37,0.34 0.51,0.51 0.07,0.09 0.13,0.16 0.18,0.22 0.04,0.06 0.07,0.09 0.07,0.09 l 0.04,0.05 0.05,-0.04 c 0,0 0.05,-0.03 0.1,-0.05 0.06,-0.02 0.14,-0.03 0.22,-0.03 0.12,0 0.24,0.03 0.36,0.11 0.11,0.08 0.21,0.22 0.27,0.46 0.03,0.12 0.05,0.24 0.05,0.36 0,0.68 -0.46,1.35 -0.77,1.7 l -0.04,0.03 0.03,0.04 c 1.05,1.54 1.24,2.96 1.24,3.42 -0.13,-0.19 -0.33,-0.49 -0.33,-0.49 0,0 -0.03,-0.05 -0.07,-0.09 -0.05,-0.05 -0.1,-0.11 -0.18,-0.13 -0.02,-0.01 -0.05,-0.01 -0.08,-0.01 -0.05,0 -0.1,0.02 -0.14,0.06 -0.04,0.04 -0.06,0.09 -0.06,0.16 0,0.06 0.02,0.12 0.05,0.2 0.46,1.33 0.54,2.75 0.54,3.53 0,0.03 0,0.05 0,0.07 -0.18,-0.29 -0.45,-0.73 -0.45,-0.73 -0.09,-0.15 -0.18,-0.22 -0.28,-0.23 -0.05,0 -0.1,0.03 -0.13,0.07 -0.03,0.04 -0.04,0.09 -0.04,0.14 0,0.03 0.01,0.07 0.02,0.11 0.23,0.63 0.32,1.22 0.32,1.76 0,0.73 -0.15,1.35 -0.3,1.79 -0.08,0.22 -0.15,0.39 -0.21,0.51 -0.02,0.04 -0.03,0.06 -0.05,0.09 -0.04,-0.06 -0.09,-0.15 -0.14,-0.24 -0.11,-0.19 -0.24,-0.43 -0.3,-0.6 -0.03,-0.09 -0.07,-0.15 -0.12,-0.2 -0.04,-0.05 -0.09,-0.08 -0.15,-0.08 -0.06,0 -0.11,0.04 -0.14,0.09 -0.03,0.05 -0.04,0.11 -0.04,0.19 0,0.03 0,0.05 0.01,0.08 0.01,0.14 0.02,0.27 0.02,0.4 0,1.24 -0.49,2.1 -0.97,2.66 -0.24,0.28 -0.49,0.48 -0.67,0.61 -0.09,0.06 -0.16,0.11 -0.21,0.14 0,-0.33 0,-1.35 -0.01,-1.75 0,-0.08 -0.02,-0.15 -0.06,-0.2 -0.04,-0.05 -0.09,-0.1 -0.15,-0.1 -0.04,0 -0.08,0.02 -0.11,0.04 -0.03,0.03 -0.06,0.07 -0.08,0.12 -0.35,0.81 -0.7,1.28 -1.01,1.54 -0.31,0.26 -0.57,0.33 -0.76,0.33 -0.09,0 -0.17,-0.02 -0.22,-0.03 0.03,-0.07 0.1,-0.19 0.17,-0.33 0.11,-0.23 0.22,-0.53 0.22,-0.81 0,-0.2 -0.06,-0.38 -0.22,-0.52 -0.16,-0.14 -0.4,-0.22 -0.77,-0.22 -0.11,0 -0.23,0.01 -0.36,0.02 -0.84,0.1 -2.02,0.63 -3.01,1.13 -0.82,0.42 -1.5,0.83 -1.7,0.95 -0.2,-0.41 -0.27,-0.79 -0.27,-1.12 0,-0.48 0.15,-0.87 0.31,-1.15 0.08,-0.13 0.15,-0.24 0.21,-0.31 0.03,-0.04 0.05,-0.06 0.07,-0.08 l 0.03,-0.03 c 0,0 0.03,-0.04 0.06,-0.08 0.03,-0.05 0.06,-0.1 0.06,-0.18 0,-0.05 -0.02,-0.1 -0.06,-0.13 -0.04,-0.03 -0.1,-0.05 -0.18,-0.05 -0.42,0.05 -0.74,0.19 -0.98,0.35 -0.17,0.11 -0.3,0.22 -0.4,0.3 0.06,-1.33 0.55,-2.19 1.06,-2.74 0.53,-0.57 1.09,-0.8 1.23,-0.86 0.11,-0.05 0.18,-0.09 0.23,-0.14 0.05,-0.05 0.07,-0.1 0.07,-0.15 0,-0.03 -0.01,-0.06 -0.01,-0.08 -0.01,-0.05 -0.04,-0.07 -0.07,-0.09 -0.08,-0.06 -0.2,-0.07 -0.21,-0.07 0,0 -0.3,-0.06 -0.61,-0.13 -0.15,-0.03 -0.3,-0.07 -0.42,-0.1 -0.04,-0.01 -0.08,-0.02 -0.1,-0.03 0.89,-1.11 2.14,-1.28 2.84,-1.28 0.16,0 0.28,0.01 0.37,0.02 0.04,0.01 0.08,0.01 0.1,0.01 0.02,0.01 0.03,0.01 0.03,0.01 0.05,0.01 0.1,0.01 0.14,0.01 0.11,0 0.19,-0.02 0.25,-0.06 0.06,-0.04 0.09,-0.1 0.09,-0.16 -0.01,-0.08 -0.05,-0.12 -0.08,-0.15 -0.04,-0.03 -0.07,-0.05 -0.07,-0.05 -0.01,0 -0.03,-0.01 -0.03,-0.01 C 24.21,12.2 24.07,12.13 23.75,11.95 23.64,11.89 23.58,11.83 23.54,11.79 23.5,11.75 23.5,11.72 23.5,11.71 l 0.01,-0.03 c 0.06,0 0.21,0.01 0.37,0.03 0.21,0.02 0.45,0.04 0.54,0.06 0.33,0.12 0.61,0.17 0.85,0.17 0.47,0 0.79,-0.19 1.02,-0.41 0.22,-0.22 0.34,-0.47 0.41,-0.6 0.06,-0.11 0.09,-0.23 0.09,-0.33 0,-0.2 -0.11,-0.36 -0.28,-0.4 -0.1,-0.02 -0.26,-0.06 -0.45,-0.06 -0.22,0 -0.47,0.05 -0.66,0.24 -0.13,0.14 -0.24,0.17 -0.31,0.17 -0.04,0 -0.08,-0.01 -0.1,-0.02 l -0.02,-0.02 c -0.01,0 -0.43,-0.4 -0.43,-0.4 C 24.37,10.06 24.26,10.02 24.2,9.98 24.14,9.94 24.14,9.91 24.14,9.91 l 0.02,-0.04 c 0.02,-0.02 0.04,-0.03 0.07,-0.05 0.24,-0.14 0.37,-0.18 0.55,-0.18 0.21,0 0.49,0.05 1,0.05 0.08,0 0.17,0 0.27,-0.01 C 26.42,9.67 26.66,9.55 26.8,9.38 26.94,9.21 26.97,9 26.97,8.82 26.97,8.59 26.91,8.4 26.91,8.39 26.91,8.38 26.65,7.66 26.14,6.83 26,6.59 25.8,6.5 25.6,6.5 25.33,6.5 25.05,6.66 24.84,6.82 24.64,6.97 24.5,7.12 24.48,7.13 24.3,7.29 24.12,7.35 23.96,7.35 23.77,7.35 23.6,7.27 23.47,7.14 23.32,7.02 23.23,6.85 23.21,6.69 M 15.04,8.32 C 15.29,8 15.37,7.73 15.37,7.5 15.37,7.24 15.26,7.03 15.13,6.88 15.05,6.79 14.97,6.72 14.9,6.67 c 0.01,0.05 0.03,0.11 0.04,0.18 0.02,0.11 0.03,0.22 0.03,0.31 0,0.39 -0.16,0.64 -0.25,0.75 0.11,0.1 0.24,0.24 0.32,0.41 M 10.77,7.85 c 0.04,0.15 0.08,0.3 0.13,0.45 0.01,0.04 0.17,0.46 0.16,0.47 0.02,-0.01 0.04,-0.03 0.06,-0.04 0,0 0.01,-0.01 0.01,-0.01 0.16,-0.08 0.31,-0.13 0.45,-0.13 0.08,0 0.14,0.02 0.21,0.04 C 11.84,8.51 11.9,8.34 11.96,8.17 12.03,7.97 12.09,7.78 12.1,7.68 12.11,7.61 12.12,7.52 12.12,7.43 12.12,7.31 12.1,7.19 12.05,7.1 12,7.02 11.93,6.96 11.79,6.96 c -0.06,0 -0.13,0.01 -0.21,0.03 -0.25,0.07 -0.59,0.15 -0.75,0.38 -0.11,0.15 -0.09,0.32 -0.06,0.48 m 0.92,-1.29 c 0.03,0 0.07,-0.01 0.1,-0.01 0.18,0 0.32,0.05 0.41,0.12 C 12.15,6.22 11.99,5.95 11.79,5.8 11.58,5.63 11.32,5.59 11.12,5.59 c -0.05,0 -0.09,0 -0.13,0.01 0.05,0.03 0.09,0.07 0.15,0.11 0.41,0.3 0.52,0.64 0.55,0.85 m -1.65,3.9 c 0,-0.05 0.01,-0.09 0.01,-0.13 0.01,-0.06 -0.37,-0.2 -0.43,-0.22 -0.15,-0.04 -0.34,-0.02 -0.44,0.1 -0.12,0.14 -0.33,0.47 -0.33,0.74 0,0.1 0.03,0.2 0.09,0.28 0.07,0.08 0.18,0.16 0.35,0.21 0.32,0.09 0.64,0.19 0.91,0.27 -0.11,-0.35 -0.18,-0.71 -0.18,-1.06 0.02,-0.06 0.02,-0.12 0.02,-0.19 m 1.84,3.18 c 0.46,0.38 0.73,0.51 0.89,0.51 0.1,0 0.17,-0.04 0.25,-0.13 0.05,-0.07 0.12,-0.16 0.19,-0.26 0.06,-0.09 0.08,-0.21 0.08,-0.33 0,-0.23 -0.08,-0.47 -0.13,-0.57 v 0 C 13.11,12.75 12.05,10.36 11.78,9.41 11.74,9.28 11.74,9.13 11.72,9.06 L 11.69,9.02 C 11.68,9 11.65,8.99 11.62,8.99 c -0.08,0 -0.19,0.03 -0.29,0.09 -0.64,0.39 -0.88,0.96 -0.88,1.58 0,1.16 0.84,2.5 1.43,2.98 m -0.95,11.42 c -0.11,0.22 -0.13,0.45 -0.13,0.62 0,0.02 0,0.03 0,0.04 0.02,-0.03 0.04,-0.07 0.06,-0.11 0.19,-0.35 0.48,-0.54 0.71,-0.64 -0.04,-0.16 -0.07,-0.32 -0.09,-0.47 -0.29,0.16 -0.45,0.36 -0.55,0.56 M 9.14,8.69 C 9.12,8.74 9.1,8.76 9.1,8.76 v 0 0 0.02 L 9.08,8.82 C 9.07,8.86 9.05,8.91 9.05,8.96 c 0,0.1 0.04,0.21 0.2,0.31 0.2,0.12 0.6,0.37 0.93,0.58 0.11,-0.31 0.29,-0.58 0.53,-0.81 L 10.2,8.1 v 0 -0.01 L 10.19,8.07 10.15,8.01 C 10.11,7.96 10.05,7.93 9.97,7.93 9.91,7.93 9.83,7.95 9.72,8.04 9.43,8.26 9.23,8.56 9.14,8.69 M 8.88,9.95 C 8.69,9.89 8.52,9.86 8.37,9.86 c -0.39,0 -0.63,0.18 -0.78,0.38 -0.11,0.14 -0.17,0.3 -0.2,0.41 0.04,-0.03 0.1,-0.06 0.16,-0.1 0.28,-0.17 0.53,-0.22 0.72,-0.22 0.14,0 0.25,0.03 0.33,0.05 0.11,-0.23 0.24,-0.39 0.28,-0.43 0,0 0,0 0,0 M 8.15,7.73 C 8.08,7.74 8.02,7.75 7.97,7.77 8.02,7.7 8.09,7.62 8.18,7.54 8.33,7.41 8.54,7.3 8.8,7.3 9.02,7.3 9.29,7.38 9.61,7.62 9.56,7.64 9.52,7.67 9.47,7.71 9.37,7.78 9.28,7.87 9.21,7.95 9.1,7.85 8.85,7.7 8.46,7.7 8.37,7.7 8.26,7.71 8.15,7.73"
   class="st2" />
	<path
   style="fill:#ffffff"
   inkscape:connector-curvature="0"
   id="path10"
   d="m 49.02,64.32 c -2.51,1.63 -11.31,0.67 -12.24,4.76 v 9.57 c 3.46,-4.11 12.71,-3.71 15.23,-5.34 z m -25.08,0 -2.99,8.98 c 2.52,1.63 11.76,1.23 15.23,5.34 V 69.07 C 35.25,64.99 26.46,65.95 23.94,64.32 m 2.24,12.8 c -1.47,0.05 -2.99,0.1 -5.91,-0.53 -0.1,0.52 -0.18,1.04 -0.26,1.57 2.86,0.27 4.31,0.06 5.71,-0.14 1.46,-0.22 2.98,-0.44 6.06,-0.11 1.21,0.13 2.12,0.29 2.82,0.46 -0.62,-0.22 -1.44,-0.45 -2.52,-0.7 -2.94,-0.66 -4.38,-0.61 -5.9,-0.55 m 12.89,0.63 c 0.57,-0.23 1.26,-0.46 2.13,-0.69 2.88,-0.78 4.35,-0.72 5.77,-0.66 1.38,0.06 2.81,0.11 5.59,-0.61 -0.1,-0.58 -0.22,-1.15 -0.35,-1.71 0,0 0,-0.01 0,-0.01 -1.08,0.6 -2.89,0.92 -4.96,1.29 -2.7,0.49 -5.92,1.06 -8.18,2.39 M 52.7,76.59 c -2.93,0.63 -4.45,0.58 -5.92,0.53 -1.52,-0.05 -2.96,-0.1 -5.9,0.56 -1.08,0.24 -1.9,0.48 -2.52,0.7 0.7,-0.17 1.61,-0.33 2.82,-0.46 3.09,-0.33 4.6,-0.11 6.06,0.11 1.4,0.21 2.85,0.42 5.71,0.14 C 52.89,77.63 52.8,77.11 52.7,76.59 M 20.4,75.8 c 0.11,-0.58 0.22,-1.15 0.35,-1.71 v -0.01 c 1.08,0.6 2.89,0.92 4.96,1.29 2.71,0.48 5.93,1.05 8.18,2.38 -0.57,-0.23 -1.26,-0.46 -2.13,-0.69 -2.88,-0.78 -4.35,-0.72 -5.77,-0.66 -1.38,0.06 -2.82,0.12 -5.59,-0.6"
   class="st2" />
	<path
   style="fill:#ffffff"
   inkscape:connector-curvature="0"
   id="path12"
   d="m 7.96,40.34 0.41,0.71 c 0.17,0.28 0.47,0.46 0.8,0.46 H 9.2 c -0.19,0.37 -0.32,0.84 -0.34,1.46 -0.01,0.11 0,0.23 0,0.35 0,0.3 0.01,0.75 -0.1,0.95 -0.05,0.08 -0.13,0.18 -0.22,0.27 -0.19,0.22 -0.52,0.58 -0.36,1.07 v 0 c 0.16,0.49 0.64,0.59 0.92,0.65 0.12,0.03 0.24,0.05 0.33,0.09 0.21,0.09 0.47,0.46 0.64,0.7 0.07,0.1 0.14,0.2 0.21,0.28 0.41,0.53 0.86,0.88 1.32,1.06 -0.35,0.19 -0.55,0.6 -0.46,1.01 l 0.18,0.8 c 0.09,0.42 0.47,0.73 0.9,0.73 0.07,0 0.13,-0.01 0.19,-0.02 l 0.81,-0.18 c 0.34,-0.07 0.6,-0.33 0.69,-0.64 0.31,0.32 0.74,0.58 1.28,0.78 0.1,0.04 0.21,0.07 0.33,0.11 0.29,0.09 0.72,0.22 0.87,0.39 0.07,0.07 0.13,0.18 0.19,0.29 0.14,0.25 0.39,0.68 0.9,0.68 v 0 0 0 c 0.51,0 0.76,-0.42 0.9,-0.68 0.06,-0.1 0.12,-0.21 0.19,-0.29 0.15,-0.17 0.58,-0.3 0.87,-0.39 0.12,-0.04 0.23,-0.07 0.33,-0.11 0.63,-0.23 1.1,-0.54 1.42,-0.93 0.03,0.15 0.09,0.29 0.19,0.42 0.16,0.19 0.38,0.31 0.63,0.34 l 0.82,0.08 c 0.03,0 0.06,0.01 0.09,0.01 0.48,0 0.87,-0.36 0.92,-0.83 l 0.08,-0.82 c 0.03,-0.25 -0.05,-0.49 -0.21,-0.68 -0.06,-0.07 -0.12,-0.13 -0.19,-0.18 0.4,-0.2 0.78,-0.52 1.13,-0.98 0.07,-0.09 0.13,-0.18 0.21,-0.28 0.17,-0.24 0.43,-0.61 0.64,-0.7 0.09,-0.04 0.21,-0.07 0.33,-0.09 0.29,-0.06 0.76,-0.16 0.93,-0.65 l -0.02,-0.01 v 0 l 0.02,0.01 c 0.16,-0.49 -0.17,-0.85 -0.36,-1.07 -0.08,-0.09 -0.17,-0.18 -0.21,-0.27 -0.11,-0.19 -0.11,-0.65 -0.1,-0.95 0,-0.12 0,-0.24 0,-0.35 -0.03,-0.72 -0.2,-1.25 -0.44,-1.64 0.04,0.01 0.08,0.01 0.12,0.01 0.37,0 0.7,-0.22 0.85,-0.55 L 26.96,40 c 0.1,-0.23 0.11,-0.48 0.02,-0.71 -0.09,-0.23 -0.26,-0.41 -0.49,-0.51 l -0.75,-0.33 c -0.12,-0.05 -0.24,-0.08 -0.37,-0.08 -0.21,0 -0.41,0.07 -0.56,0.19 -0.07,-0.44 -0.26,-0.9 -0.58,-1.38 C 24.17,37.09 24.1,37 24.02,36.9 c -0.18,-0.24 -0.45,-0.6 -0.47,-0.83 -0.01,-0.09 0,-0.22 0.02,-0.34 0.03,-0.29 0.08,-0.78 -0.34,-1.08 l -0.06,0.08 v 0 l 0.06,-0.08 c -0.14,-0.1 -0.32,-0.16 -0.5,-0.16 -0.24,0 -0.44,0.09 -0.63,0.18 -0.11,0.05 -0.23,0.1 -0.32,0.12 -0.03,0.01 -0.06,0.01 -0.1,0.01 -0.24,0 -0.57,-0.11 -0.84,-0.2 -0.12,-0.04 -0.23,-0.08 -0.33,-0.11 -0.38,-0.11 -0.73,-0.16 -1.05,-0.16 -0.19,0 -0.41,0.02 -0.65,0.08 0.07,-0.14 0.1,-0.29 0.09,-0.45 -0.01,-0.25 -0.12,-0.47 -0.31,-0.64 l -0.61,-0.55 c -0.17,-0.15 -0.39,-0.24 -0.62,-0.24 -0.26,0 -0.52,0.11 -0.69,0.31 l -0.55,0.61 c -0.23,0.26 -0.29,0.62 -0.18,0.93 -0.16,-0.03 -0.31,-0.04 -0.44,-0.04 -0.32,0 -0.67,0.06 -1.05,0.16 -0.11,0.03 -0.22,0.07 -0.33,0.11 -0.26,0.09 -0.6,0.2 -0.84,0.2 -0.04,0 -0.07,0 -0.1,-0.01 -0.09,-0.02 -0.21,-0.07 -0.32,-0.12 -0.19,-0.09 -0.39,-0.18 -0.63,-0.18 -0.19,0 -0.36,0.06 -0.5,0.16 v 0 h -0.01 c -0.42,0.3 -0.37,0.79 -0.34,1.08 0.02,0.12 0.03,0.25 0.02,0.34 -0.03,0.22 -0.29,0.59 -0.47,0.83 -0.07,0.1 -0.14,0.19 -0.21,0.28 -0.37,0.56 -0.57,1.09 -0.6,1.59 -0.17,-0.16 -0.4,-0.26 -0.64,-0.26 -0.16,0 -0.32,0.04 -0.47,0.12 L 8.3,39.07 c -0.21,0.12 -0.37,0.32 -0.43,0.56 -0.07,0.24 -0.03,0.49 0.09,0.71"
   class="st2" />
	<path
   style="fill:#ffffff"
   inkscape:connector-curvature="0"
   id="path14"
   d="m 17.42,38.53 c 0.92,0 1.69,0.65 1.86,1.52 0.08,-0.01 0.17,-0.02 0.25,-0.02 0.83,0 1.56,0.53 1.81,1.31 0.28,0.87 -0.1,1.81 -0.87,2.24 0.17,0.35 0.22,0.73 0.16,1.12 -0.08,0.5 -0.35,0.94 -0.76,1.24 -0.33,0.24 -0.71,0.36 -1.12,0.36 -0.48,0 -0.94,-0.18 -1.28,-0.5 -0.35,0.34 -0.83,0.53 -1.32,0.53 -0.4,0 -0.79,-0.13 -1.12,-0.36 -0.74,-0.54 -0.98,-1.52 -0.62,-2.33 -0.34,-0.18 -0.62,-0.46 -0.79,-0.81 -0.23,-0.45 -0.27,-0.97 -0.11,-1.45 0.26,-0.79 0.98,-1.31 1.81,-1.31 0.07,0 0.14,0 0.21,0.01 0.07,-0.38 0.25,-0.73 0.53,-1.01 0.37,-0.35 0.85,-0.54 1.36,-0.54"
   class="st2" />
	<path
   style="fill:#b5121b"
   inkscape:connector-curvature="0"
   id="path16"
   d="m 20.59,47.37 c 0.78,1.48 0.28,2.35 -1.05,2.84 -0.4,0.15 -1.13,0.29 -1.49,0.7 -0.27,0.3 -0.38,0.72 -0.56,0.72 -0.18,0 -0.29,-0.42 -0.56,-0.72 -0.36,-0.4 -1.09,-0.55 -1.49,-0.7 -1.33,-0.49 -1.82,-1.35 -1.05,-2.84 0.17,-0.32 0.42,-0.82 0.79,-1.3 0.3,0.18 0.63,0.27 0.98,0.27 0.49,0 0.96,-0.19 1.32,-0.53 0.35,0.32 0.81,0.5 1.28,0.5 0.36,0 0.7,-0.1 1,-0.28 0.39,0.49 0.66,1.02 0.83,1.34 m 2.45,1.47 -0.98,-0.28 c -0.12,-0.01 -0.22,0.07 -0.23,0.19 l 0.08,1.02 c -0.01,0.11 0.07,0.22 0.19,0.23 l 0.82,0.08 c 0.11,0.01 0.22,-0.07 0.23,-0.19 l 0.08,-0.82 c 0.01,-0.12 -0.07,-0.22 -0.19,-0.23 m -8.6,-5.19 c -0.34,-0.18 -0.62,-0.46 -0.8,-0.81 -0.21,-0.42 -0.26,-0.9 -0.14,-1.35 -0.59,-0.22 -1.18,-0.31 -1.54,-0.37 -1.65,-0.28 -2.33,0.46 -2.38,1.87 -0.02,0.42 0.07,1.16 -0.2,1.63 -0.2,0.35 -0.57,0.59 -0.51,0.76 0.06,0.17 0.49,0.14 0.86,0.31 0.49,0.22 0.86,0.87 1.12,1.2 0.87,1.11 1.85,1.31 3.02,0.12 0.25,-0.26 0.66,-0.67 1.01,-1.17 -0.61,-0.56 -0.78,-1.45 -0.44,-2.19 m 10.95,-0.69 c -0.06,-1.41 -0.73,-2.15 -2.38,-1.87 -0.38,0.06 -1,0.16 -1.62,0.4 0.2,0.83 -0.19,1.68 -0.91,2.09 0.17,0.35 0.23,0.73 0.17,1.12 -0.07,0.42 -0.27,0.8 -0.57,1.08 0.35,0.52 0.77,0.93 1.02,1.19 1.17,1.2 2.15,0.99 3.02,-0.12 0.26,-0.33 0.63,-0.98 1.12,-1.2 0.37,-0.16 0.81,-0.14 0.86,-0.31 0.05,-0.17 -0.31,-0.41 -0.52,-0.76 -0.26,-0.45 -0.18,-1.19 -0.19,-1.62 M 13.2,48.78 C 13.18,48.67 13.06,48.59 12.95,48.62 L 12,49.01 c -0.11,0.03 -0.19,0.14 -0.16,0.25 l 0.17,0.81 c 0.03,0.11 0.14,0.19 0.25,0.16 l 0.81,-0.17 c 0.11,-0.03 0.18,-0.14 0.16,-0.25 z m 11.5,-8.45 1,0.24 c 0.1,0.05 0.23,0 0.27,-0.11 l 0.33,-0.75 c 0.05,-0.11 0,-0.23 -0.1,-0.28 L 25.44,39.1 c -0.1,-0.05 -0.23,0 -0.28,0.11 l -0.57,0.85 c -0.05,0.1 0,0.23 0.11,0.27 M 8.59,39.98 9,40.69 c 0.06,0.1 0.19,0.13 0.29,0.08 l 0.96,-0.35 c 0.1,-0.06 0.13,-0.19 0.08,-0.28 L 9.67,39.36 C 9.61,39.26 9.48,39.23 9.38,39.28 l -0.71,0.41 c -0.11,0.06 -0.15,0.18 -0.08,0.29 m 3.55,0.53 c 0.34,0.17 0.88,0.44 1.5,0.62 0.32,-0.64 0.97,-1.05 1.7,-1.05 0.07,0 0.14,0.01 0.21,0.01 0.07,-0.38 0.25,-0.73 0.53,-1 0.32,-0.32 0.74,-0.52 1.19,-0.55 0.04,-0.66 -0.06,-1.29 -0.12,-1.67 -0.25,-1.66 -1.16,-2.07 -2.52,-1.68 -0.41,0.12 -1.08,0.43 -1.61,0.31 -0.4,-0.08 -0.73,-0.36 -0.88,-0.26 -0.14,0.11 0.01,0.51 -0.03,0.91 -0.06,0.54 -0.56,1.09 -0.8,1.44 -0.79,1.18 -0.67,2.17 0.83,2.92 m 5.15,-5.49 c 0.09,0.08 0.22,0.07 0.3,-0.02 l 0.54,-0.87 c 0.08,-0.09 0.07,-0.22 -0.02,-0.3 L 17.5,33.28 C 17.41,33.2 17.28,33.21 17.2,33.3 l -0.55,0.61 c -0.08,0.09 -0.07,0.22 0.02,0.3 z m 0.38,3.52 c 0.81,0.1 1.46,0.72 1.62,1.5 0.08,-0.01 0.17,-0.02 0.25,-0.02 0.74,0 1.41,0.43 1.72,1.09 0.64,-0.17 1.2,-0.45 1.54,-0.63 1.5,-0.74 1.61,-1.74 0.82,-2.91 -0.23,-0.35 -0.74,-0.9 -0.8,-1.44 -0.04,-0.4 0.12,-0.81 -0.03,-0.91 v 0 c -0.14,-0.1 -0.48,0.17 -0.88,0.26 -0.53,0.11 -1.21,-0.2 -1.61,-0.31 -1.36,-0.38 -2.27,0.03 -2.52,1.68 -0.05,0.39 -0.15,1.02 -0.11,1.69"
   class="st1" />
	<path
   style="fill:#b5121b"
   inkscape:connector-curvature="0"
   id="path18"
   d="m 14.97,43.1 c 0.1,0.04 0.21,0.05 0.31,0.06 0,0 0,0 0,0 0.06,0.01 0.11,0.03 0.15,0.09 0.06,0.09 0.05,0.21 -0.03,0.28 -0.07,0.06 -0.14,0.13 -0.2,0.21 -0.38,0.53 -0.27,1.27 0.26,1.65 0.53,0.38 1.27,0.27 1.65,-0.26 0.07,-0.09 0.12,-0.18 0.15,-0.28 v 0 c 0.02,-0.05 0.07,-0.1 0.13,-0.12 0.1,-0.03 0.21,0.02 0.26,0.11 v 0 c 0.03,0.09 0.08,0.17 0.14,0.25 0.39,0.53 1.13,0.65 1.65,0.26 0.53,-0.38 0.65,-1.13 0.26,-1.65 -0.06,-0.09 -0.14,-0.17 -0.22,-0.23 v 0 c -0.05,-0.04 -0.07,-0.09 -0.07,-0.16 0,-0.11 0.08,-0.2 0.19,-0.21 0,0 0,0 0,0 0.09,-0.01 0.19,-0.02 0.28,-0.05 0.62,-0.2 0.96,-0.87 0.76,-1.49 -0.2,-0.62 -0.87,-0.96 -1.49,-0.76 -0.1,0.03 -0.2,0.08 -0.28,0.14 v 0 c -0.05,0.03 -0.11,0.04 -0.17,0.02 -0.1,-0.03 -0.16,-0.14 -0.14,-0.25 0.02,-0.09 0.03,-0.19 0.03,-0.29 0,-0.66 -0.53,-1.19 -1.18,-1.19 -0.66,0 -1.18,0.53 -1.18,1.19 0,0.11 0.02,0.21 0.04,0.31 0.01,0.06 0,0.12 -0.04,0.17 -0.06,0.09 -0.18,0.11 -0.27,0.06 -0.08,-0.05 -0.17,-0.09 -0.26,-0.12 -0.62,-0.2 -1.29,0.14 -1.49,0.76 -0.2,0.64 0.14,1.3 0.76,1.5"
   class="st1" />
	<path
   style="fill:#ffffff"
   inkscape:connector-curvature="0"
   id="path20"
   d="m 16.44,42.62 c 0,-0.52 0.42,-0.93 0.93,-0.93 0.52,0 0.93,0.42 0.93,0.93 0,0.52 -0.42,0.93 -0.93,0.93 -0.51,0 -0.93,-0.41 -0.93,-0.93"
   class="st2" />
	<path
   style="fill:#ffffff"
   inkscape:connector-curvature="0"
   id="path22"
   d="m 64.99,40.34 -0.42,0.71 c -0.16,0.28 -0.47,0.46 -0.8,0.46 h -0.02 c 0.19,0.37 0.32,0.84 0.34,1.46 0.01,0.11 0,0.23 0,0.35 0,0.3 -0.01,0.75 0.1,0.95 0.05,0.08 0.13,0.18 0.22,0.27 0.19,0.22 0.52,0.58 0.36,1.07 v 0 c -0.16,0.49 -0.64,0.59 -0.92,0.65 -0.12,0.03 -0.24,0.05 -0.33,0.09 -0.21,0.09 -0.47,0.46 -0.64,0.7 -0.07,0.1 -0.14,0.2 -0.21,0.28 -0.41,0.53 -0.86,0.88 -1.32,1.06 0.35,0.19 0.55,0.6 0.46,1.01 l -0.18,0.8 c -0.09,0.42 -0.47,0.73 -0.9,0.73 -0.07,0 -0.13,-0.01 -0.19,-0.02 l -0.81,-0.18 c -0.34,-0.07 -0.6,-0.33 -0.69,-0.64 -0.31,0.32 -0.74,0.58 -1.28,0.78 -0.1,0.04 -0.21,0.07 -0.33,0.11 -0.29,0.09 -0.72,0.22 -0.87,0.39 -0.07,0.07 -0.13,0.18 -0.19,0.29 -0.14,0.25 -0.39,0.68 -0.9,0.68 v 0 0 0 c -0.51,0 -0.76,-0.42 -0.9,-0.68 -0.06,-0.1 -0.12,-0.21 -0.19,-0.29 -0.15,-0.17 -0.58,-0.3 -0.87,-0.39 -0.12,-0.04 -0.23,-0.07 -0.33,-0.11 -0.63,-0.23 -1.1,-0.54 -1.42,-0.93 -0.03,0.15 -0.09,0.29 -0.19,0.42 -0.16,0.19 -0.38,0.31 -0.62,0.34 l -0.82,0.08 c -0.03,0 -0.06,0.01 -0.09,0.01 -0.48,0 -0.87,-0.36 -0.92,-0.83 L 49,49.14 c -0.03,-0.25 0.05,-0.49 0.21,-0.68 0.06,-0.07 0.12,-0.13 0.19,-0.18 C 49,48.08 48.62,47.76 48.27,47.3 48.2,47.21 48.14,47.12 48.06,47.02 47.89,46.78 47.63,46.41 47.42,46.32 47.33,46.28 47.21,46.25 47.09,46.23 46.8,46.17 46.33,46.07 46.16,45.58 l 0.02,-0.01 v 0 l -0.02,0.01 c -0.16,-0.49 0.17,-0.85 0.36,-1.07 0.08,-0.09 0.17,-0.18 0.21,-0.27 0.11,-0.19 0.11,-0.65 0.1,-0.95 0,-0.12 0,-0.24 0,-0.35 0.03,-0.72 0.2,-1.25 0.44,-1.64 -0.04,0.01 -0.08,0.01 -0.12,0.01 -0.37,0 -0.7,-0.22 -0.85,-0.55 L 45.99,40 c -0.1,-0.23 -0.11,-0.48 -0.02,-0.71 0.09,-0.23 0.26,-0.41 0.49,-0.51 l 0.75,-0.33 c 0.12,-0.05 0.24,-0.08 0.37,-0.08 0.21,0 0.41,0.07 0.56,0.19 0.07,-0.44 0.26,-0.9 0.58,-1.38 0.06,-0.09 0.13,-0.18 0.21,-0.28 0.18,-0.24 0.45,-0.6 0.47,-0.83 0.01,-0.09 0,-0.22 -0.02,-0.34 -0.03,-0.29 -0.08,-0.78 0.34,-1.08 l 0.06,0.08 v 0 l -0.06,-0.08 c 0.14,-0.1 0.32,-0.16 0.5,-0.16 0.24,0 0.44,0.09 0.63,0.18 0.11,0.05 0.23,0.1 0.32,0.12 0.03,0.01 0.06,0.01 0.1,0.01 0.24,0 0.57,-0.11 0.84,-0.2 0.12,-0.04 0.23,-0.08 0.33,-0.11 0.38,-0.11 0.73,-0.16 1.05,-0.16 0.19,0 0.41,0.02 0.65,0.08 -0.07,-0.14 -0.1,-0.29 -0.09,-0.45 0.01,-0.25 0.12,-0.47 0.31,-0.64 l 0.61,-0.55 c 0.17,-0.15 0.39,-0.24 0.62,-0.24 0.26,0 0.52,0.11 0.69,0.31 l 0.55,0.61 c 0.23,0.26 0.29,0.62 0.18,0.93 0.16,-0.03 0.31,-0.04 0.44,-0.04 0.32,0 0.67,0.06 1.05,0.16 0.11,0.03 0.22,0.07 0.34,0.11 0.26,0.09 0.6,0.2 0.84,0.2 0.04,0 0.07,0 0.1,-0.01 0.09,-0.02 0.21,-0.07 0.32,-0.12 0.19,-0.09 0.39,-0.18 0.63,-0.18 0.19,0 0.36,0.06 0.5,0.16 v 0 h 0.01 c 0.42,0.3 0.37,0.79 0.34,1.08 -0.02,0.12 -0.03,0.25 -0.02,0.34 0.03,0.22 0.29,0.59 0.47,0.83 0.07,0.1 0.14,0.19 0.2,0.28 0.37,0.56 0.57,1.09 0.6,1.59 0.17,-0.16 0.4,-0.26 0.64,-0.26 0.16,0 0.32,0.04 0.47,0.12 l 0.71,0.41 c 0.21,0.12 0.37,0.32 0.43,0.56 0.06,0.26 0.03,0.51 -0.09,0.73"
   class="st2" />
	<path
   style="fill:#ffffff"
   inkscape:connector-curvature="0"
   id="path24"
   d="m 55.53,38.53 c -0.92,0 -1.69,0.65 -1.86,1.52 -0.08,-0.01 -0.17,-0.02 -0.25,-0.02 -0.83,0 -1.56,0.53 -1.81,1.31 -0.28,0.87 0.1,1.81 0.87,2.24 -0.17,0.35 -0.22,0.73 -0.16,1.12 0.08,0.5 0.35,0.94 0.76,1.24 0.33,0.24 0.71,0.36 1.12,0.36 0.48,0 0.94,-0.18 1.28,-0.5 0.35,0.34 0.83,0.53 1.32,0.53 0.4,0 0.79,-0.13 1.12,-0.36 0.74,-0.54 0.98,-1.52 0.62,-2.33 0.34,-0.18 0.62,-0.46 0.79,-0.81 0.23,-0.45 0.27,-0.97 0.11,-1.45 -0.26,-0.79 -0.98,-1.31 -1.81,-1.31 -0.07,0 -0.14,0 -0.21,0.01 -0.07,-0.38 -0.25,-0.73 -0.53,-1.01 -0.38,-0.35 -0.85,-0.54 -1.36,-0.54"
   class="st2" />
	<path
   style="fill:#b5121b"
   inkscape:connector-curvature="0"
   id="path26"
   d="m 52.36,47.37 c 0.17,-0.33 0.43,-0.85 0.82,-1.34 0.3,0.19 0.64,0.28 1,0.28 0.48,0 0.94,-0.18 1.28,-0.5 0.35,0.34 0.82,0.53 1.32,0.53 0.35,0 0.68,-0.09 0.98,-0.27 0.37,0.48 0.63,0.98 0.79,1.3 0.78,1.48 0.28,2.35 -1.04,2.84 -0.4,0.15 -1.13,0.29 -1.49,0.7 -0.27,0.3 -0.38,0.72 -0.56,0.72 -0.18,0 -0.29,-0.42 -0.56,-0.72 -0.36,-0.4 -1.09,-0.55 -1.49,-0.7 -1.33,-0.49 -1.82,-1.35 -1.05,-2.84 m -2.45,1.47 c -0.12,0.01 -0.2,0.11 -0.19,0.23 l 0.08,0.82 c 0.01,0.11 0.11,0.2 0.23,0.19 L 50.85,50 c 0.11,-0.01 0.2,-0.11 0.19,-0.23 l 0.08,-1.02 c -0.01,-0.11 -0.11,-0.2 -0.23,-0.19 z m 8.6,-5.19 c 0.34,0.74 0.17,1.62 -0.44,2.18 0.35,0.51 0.75,0.91 1.01,1.17 1.17,1.19 2.15,0.99 3.02,-0.12 0.26,-0.33 0.63,-0.98 1.12,-1.2 0.37,-0.17 0.81,-0.14 0.86,-0.31 0.06,-0.17 -0.31,-0.41 -0.51,-0.76 -0.27,-0.47 -0.19,-1.21 -0.2,-1.63 -0.05,-1.41 -0.72,-2.15 -2.38,-1.87 -0.36,0.06 -0.95,0.16 -1.54,0.37 0.12,0.45 0.07,0.93 -0.14,1.35 -0.18,0.36 -0.46,0.64 -0.8,0.82 M 47.56,42.96 c -0.02,0.42 0.07,1.16 -0.2,1.63 -0.2,0.35 -0.57,0.59 -0.52,0.76 0.06,0.17 0.49,0.15 0.86,0.31 0.5,0.22 0.86,0.87 1.12,1.2 0.87,1.11 1.85,1.32 3.02,0.12 0.26,-0.26 0.67,-0.67 1.02,-1.19 -0.3,-0.28 -0.5,-0.66 -0.57,-1.08 -0.06,-0.39 0,-0.78 0.17,-1.12 -0.72,-0.41 -1.11,-1.26 -0.91,-2.09 -0.62,-0.24 -1.24,-0.34 -1.62,-0.4 -1.64,-0.29 -2.31,0.45 -2.37,1.86 m 12.16,6.84 c -0.02,0.11 0.05,0.23 0.16,0.25 l 0.81,0.17 c 0.11,0.03 0.22,-0.05 0.25,-0.16 l 0.17,-0.81 C 61.13,49.14 61.06,49.03 60.95,49 L 60,48.62 c -0.11,-0.03 -0.23,0.05 -0.25,0.16 z M 48.25,40.33 c 0.11,-0.05 0.15,-0.17 0.11,-0.28 L 47.79,39.2 c -0.05,-0.1 -0.17,-0.15 -0.28,-0.11 l -0.76,0.33 c -0.1,0.05 -0.15,0.17 -0.1,0.28 l 0.33,0.75 c 0.05,0.11 0.17,0.16 0.28,0.11 z m 16.11,-0.35 c 0.06,-0.1 0.03,-0.23 -0.07,-0.29 l -0.71,-0.41 c -0.1,-0.06 -0.23,-0.02 -0.29,0.08 l -0.66,0.78 c -0.06,0.1 -0.02,0.23 0.08,0.28 l 0.96,0.35 c 0.1,0.06 0.23,0.02 0.29,-0.08 z m -3.55,0.53 c 1.5,-0.74 1.61,-1.74 0.82,-2.91 -0.24,-0.35 -0.74,-0.9 -0.8,-1.44 -0.04,-0.4 0.12,-0.81 -0.03,-0.91 -0.14,-0.1 -0.48,0.17 -0.88,0.26 -0.53,0.11 -1.21,-0.2 -1.61,-0.31 -1.36,-0.39 -2.27,0.03 -2.52,1.68 -0.06,0.38 -0.15,1 -0.12,1.67 0.45,0.04 0.87,0.23 1.19,0.55 0.28,0.28 0.46,0.63 0.53,1 0.07,-0.01 0.14,-0.01 0.21,-0.01 0.73,0 1.38,0.41 1.7,1.05 0.63,-0.19 1.18,-0.47 1.51,-0.63 m -4.52,-6.29 c 0.09,-0.08 0.09,-0.21 0.02,-0.3 l -0.55,-0.61 c -0.08,-0.09 -0.21,-0.09 -0.29,-0.02 l -0.62,0.55 c -0.09,0.08 -0.09,0.21 -0.02,0.3 l 0.54,0.87 c 0.08,0.09 0.21,0.09 0.3,0.02 z m -1.01,4.32 c 0.04,-0.67 -0.06,-1.31 -0.12,-1.69 -0.25,-1.66 -1.16,-2.07 -2.52,-1.68 -0.41,0.12 -1.08,0.43 -1.61,0.31 -0.4,-0.09 -0.73,-0.36 -0.88,-0.26 v 0 c -0.14,0.1 0.01,0.51 -0.03,0.91 -0.06,0.54 -0.56,1.09 -0.8,1.44 -0.79,1.17 -0.68,2.17 0.82,2.91 0.34,0.17 0.9,0.45 1.54,0.63 0.31,-0.66 0.97,-1.09 1.72,-1.09 0.08,0 0.17,0.01 0.25,0.02 0.18,-0.78 0.83,-1.39 1.63,-1.5"
   class="st1" />
	<path
   style="fill:#b5121b"
   inkscape:connector-curvature="0"
   id="path28"
   d="m 57.98,43.1 c -0.1,0.04 -0.21,0.05 -0.31,0.06 0,0 0,0 0,0 -0.06,0.01 -0.12,0.03 -0.15,0.09 -0.06,0.09 -0.05,0.21 0.03,0.28 0.07,0.06 0.14,0.13 0.2,0.21 0.38,0.53 0.27,1.27 -0.26,1.65 -0.53,0.38 -1.27,0.27 -1.65,-0.26 -0.07,-0.09 -0.12,-0.18 -0.15,-0.28 v 0 c -0.02,-0.05 -0.07,-0.1 -0.13,-0.12 -0.1,-0.03 -0.21,0.02 -0.26,0.11 v 0 c -0.03,0.09 -0.08,0.17 -0.14,0.25 -0.39,0.53 -1.13,0.65 -1.66,0.26 -0.53,-0.38 -0.65,-1.13 -0.26,-1.65 0.06,-0.09 0.14,-0.17 0.22,-0.23 v 0 c 0.05,-0.04 0.07,-0.09 0.07,-0.16 0,-0.11 -0.08,-0.2 -0.19,-0.21 0,0 0,0 0,0 -0.09,-0.01 -0.19,-0.02 -0.28,-0.05 -0.62,-0.2 -0.96,-0.87 -0.76,-1.49 0.2,-0.62 0.87,-0.96 1.49,-0.76 0.1,0.03 0.2,0.08 0.28,0.14 v 0 c 0.05,0.03 0.11,0.04 0.17,0.02 0.1,-0.03 0.16,-0.14 0.14,-0.25 -0.02,-0.09 -0.04,-0.19 -0.04,-0.29 0,-0.66 0.53,-1.19 1.18,-1.19 0.66,0 1.18,0.53 1.18,1.19 0,0.11 -0.02,0.21 -0.04,0.31 -0.01,0.06 0,0.12 0.04,0.17 0.06,0.09 0.18,0.11 0.28,0.06 0.08,-0.05 0.17,-0.09 0.26,-0.12 0.62,-0.2 1.29,0.14 1.49,0.76 0.21,0.64 -0.13,1.3 -0.75,1.5"
   class="st1" />
	<path
   style="fill:#ffffff"
   inkscape:connector-curvature="0"
   id="path30"
   d="m 56.51,42.62 c 0,-0.52 -0.42,-0.93 -0.93,-0.93 -0.52,0 -0.93,0.42 -0.93,0.93 0,0.52 0.42,0.93 0.93,0.93 0.51,0 0.93,-0.41 0.93,-0.93"
   class="st2" />
	<path
   style="fill:#ffffff"
   inkscape:connector-curvature="0"
   id="path32"
   d="m 64.94,61.29 c -1.73,0.48 -3.82,0.82 -6.8,0.82 -2.64,0 -4.59,-0.27 -6.2,-0.67 -1.21,-0.3 -2.24,-0.67 -3.26,-1.07 -1.51,-0.6 -3,-1.28 -4.9,-1.81 -1.9,-0.53 -4.18,-0.89 -7.3,-0.89 -2.77,0 -4.88,0.28 -6.65,0.72 -1.32,0.33 -2.45,0.73 -3.5,1.15 -1.58,0.63 -2.97,1.26 -4.7,1.75 -1.73,0.48 -3.82,0.82 -6.8,0.82 -2.64,0 -4.59,-0.27 -6.2,-0.67 -1.14,-0.28 -2.11,-0.63 -3.07,-1 0.36,0.8 0.73,1.6 1.13,2.4 0.27,0.09 0.55,0.17 0.84,0.25 1.9,0.53 4.18,0.89 7.3,0.89 2.77,0 4.88,-0.28 6.65,-0.72 1.33,-0.33 2.45,-0.73 3.5,-1.15 1.58,-0.63 2.97,-1.26 4.7,-1.75 1.73,-0.48 3.82,-0.82 6.8,-0.82 2.64,0 4.59,0.27 6.2,0.67 1.21,0.3 2.24,0.67 3.26,1.07 1.52,0.6 3,1.28 4.9,1.81 1.9,0.53 4.19,0.89 7.3,0.89 2.77,0 4.89,-0.28 6.66,-0.72 0.52,-0.13 1,-0.27 1.47,-0.42 0.4,-0.8 0.78,-1.6 1.13,-2.4 -0.78,0.32 -1.57,0.61 -2.46,0.85"
   class="st2" />
	<path
   style="fill:#ffffff"
   inkscape:connector-curvature="0"
   id="path34"
   d="m 58.15,58.34 c -2.64,0 -4.59,-0.27 -6.2,-0.67 -1.21,-0.3 -2.24,-0.67 -3.26,-1.07 -1.52,-0.6 -3,-1.28 -4.9,-1.81 -1.9,-0.53 -4.18,-0.89 -7.3,-0.89 -2.77,0 -4.88,0.29 -6.65,0.72 -1.32,0.33 -2.45,0.73 -3.5,1.15 -1.58,0.63 -2.97,1.27 -4.7,1.75 -1.73,0.48 -3.82,0.82 -6.8,0.82 -2.64,0 -4.59,-0.27 -6.2,-0.67 C 7.42,57.37 6.39,57 5.38,56.6 4.84,56.39 4.31,56.17 3.77,55.94 c 0.28,0.79 0.59,1.59 0.91,2.4 0.88,0.35 1.8,0.69 2.86,0.99 1.9,0.53 4.19,0.89 7.3,0.89 2.77,0 4.88,-0.29 6.65,-0.72 1.33,-0.33 2.45,-0.73 3.5,-1.15 1.58,-0.63 2.97,-1.26 4.7,-1.74 1.73,-0.48 3.82,-0.82 6.79,-0.82 2.64,0 4.59,0.27 6.21,0.67 1.21,0.3 2.24,0.67 3.26,1.07 1.52,0.6 3,1.28 4.9,1.81 1.89,0.53 4.19,0.89 7.3,0.89 2.77,0 4.89,-0.29 6.66,-0.72 1.32,-0.33 2.44,-0.73 3.49,-1.15 0.32,-0.81 0.63,-1.61 0.91,-2.4 -1.4,0.57 -2.69,1.13 -4.25,1.56 -1.75,0.48 -3.84,0.82 -6.81,0.82"
   class="st2" />
	<path
   style="fill:#ffffff"
   inkscape:connector-curvature="0"
   id="path36"
   d="m 3.15,54.12 c 1.35,0.55 2.7,1.14 4.39,1.61 1.9,0.53 4.19,0.89 7.3,0.89 2.77,0 4.88,-0.28 6.65,-0.72 1.33,-0.33 2.45,-0.73 3.5,-1.15 1.58,-0.63 2.97,-1.26 4.7,-1.75 1.73,-0.48 3.82,-0.82 6.79,-0.82 2.64,0 4.59,0.27 6.21,0.67 1.21,0.3 2.24,0.67 3.26,1.07 1.52,0.6 3,1.28 4.89,1.81 1.89,0.53 4.19,0.89 7.3,0.89 2.77,0 4.89,-0.28 6.66,-0.72 1.32,-0.33 2.45,-0.73 3.5,-1.15 0.52,-0.21 1.02,-0.41 1.51,-0.61 0.25,-0.77 0.47,-1.53 0.68,-2.29 -0.29,0.11 -0.57,0.22 -0.85,0.33 -1.58,0.63 -2.97,1.26 -4.7,1.75 -1.73,0.48 -3.82,0.82 -6.8,0.82 -2.64,0 -4.59,-0.27 -6.2,-0.67 -1.21,-0.3 -2.24,-0.67 -3.26,-1.07 -1.52,-0.6 -3,-1.28 -4.89,-1.81 -1.9,-0.53 -4.18,-0.89 -7.3,-0.89 -2.77,0 -4.88,0.28 -6.65,0.72 -1.33,0.33 -2.45,0.73 -3.5,1.15 -1.58,0.63 -2.97,1.26 -4.7,1.75 -1.73,0.48 -3.82,0.82 -6.8,0.82 -2.64,0 -4.59,-0.27 -6.2,-0.67 C 7.43,53.78 6.4,53.41 5.38,53.01 4.43,52.64 3.5,52.23 2.47,51.85 c 0.21,0.74 0.43,1.5 0.68,2.27"
   class="st2" />
	<rect
   style="fill:#ffffff"
   id="rect38"
   height="0.94"
   width="72.400002"
   class="st2"
   y="29.93"
   x="0.28999999" />
</g><g
     id="g80">
	<path
   style="fill:#b41f29"
   inkscape:connector-curvature="0"
   id="path42"
   d="M 92.53,33.29 V 14.53 h -2.34 c -0.08,-0.24 -0.12,-0.5 -0.12,-0.78 0,-0.28 0.04,-0.54 0.12,-0.78 h 7.05 c 0.08,0.24 0.12,0.5 0.12,0.78 0,0.28 -0.04,0.54 -0.12,0.78 h -2.67 v 18.6 h 8.88 v -5.22 c 0.26,-0.08 0.55,-0.12 0.87,-0.12 0.34,0 0.64,0.04 0.9,0.12 v 6.93 H 90.19 c -0.08,-0.24 -0.12,-0.5 -0.12,-0.78 0,-0.28 0.04,-0.54 0.12,-0.78 h 2.34 z"
   class="st3" />
	<path
   style="fill:#b41f29"
   inkscape:connector-curvature="0"
   id="path44"
   d="m 117.53,32.75 c -0.46,0.68 -1.09,1.27 -1.89,1.77 -0.8,0.5 -1.93,0.75 -3.39,0.75 -1.44,0 -2.6,-0.39 -3.48,-1.16 -0.88,-0.77 -1.32,-1.85 -1.32,-3.23 0,-0.66 0.09,-1.27 0.27,-1.83 0.18,-0.56 0.48,-1.06 0.9,-1.5 0.42,-0.44 0.97,-0.81 1.65,-1.11 0.68,-0.3 1.52,-0.5 2.52,-0.6 l 4.65,-0.48 v -0.72 c 0,-0.62 -0.06,-1.17 -0.18,-1.64 -0.12,-0.47 -0.33,-0.87 -0.62,-1.2 -0.29,-0.33 -0.69,-0.58 -1.19,-0.75 -0.5,-0.17 -1.13,-0.25 -1.89,-0.25 -0.52,0 -1.01,0.06 -1.47,0.18 -0.46,0.12 -0.89,0.27 -1.29,0.44 -0.4,0.17 -0.77,0.36 -1.11,0.57 -0.34,0.21 -0.63,0.41 -0.87,0.59 v -1.83 c 0.2,-0.14 0.46,-0.3 0.78,-0.48 0.32,-0.18 0.69,-0.35 1.13,-0.5 0.44,-0.15 0.92,-0.28 1.49,-0.39 0.56,-0.11 1.18,-0.17 1.86,-0.17 0.48,0 1.02,0.05 1.64,0.15 0.61,0.1 1.19,0.32 1.73,0.66 0.54,0.34 1,0.84 1.37,1.5 0.37,0.66 0.56,1.56 0.56,2.7 v 9.18 h 2.01 c 0.08,0.22 0.12,0.46 0.12,0.72 0,0.26 -0.04,0.5 -0.12,0.72 h -3.84 v -2.09 z m -0.09,-5.88 -4.02,0.42 c -1.32,0.16 -2.33,0.5 -3.02,1.01 -0.69,0.51 -1.04,1.38 -1.04,2.6 0,0.9 0.3,1.6 0.9,2.1 0.6,0.5 1.41,0.75 2.43,0.75 0.56,0 1.12,-0.08 1.68,-0.25 0.56,-0.17 1.07,-0.43 1.52,-0.78 0.45,-0.35 0.82,-0.78 1.11,-1.29 0.29,-0.51 0.44,-1.1 0.44,-1.76 z"
   class="st3" />
	<path
   style="fill:#b41f29"
   inkscape:connector-curvature="0"
   id="path46"
   d="M 125.15,33.41 V 21.07 h -2.13 c -0.08,-0.22 -0.12,-0.46 -0.12,-0.72 0,-0.26 0.04,-0.5 0.12,-0.72 h 3.81 v 2.4 c 0.42,-0.76 1.03,-1.42 1.83,-1.98 0.8,-0.56 1.86,-0.84 3.18,-0.84 1.56,0 2.76,0.44 3.6,1.32 0.84,0.88 1.26,2.2 1.26,3.96 v 8.91 h 2.13 c 0.08,0.22 0.12,0.46 0.12,0.72 0,0.26 -0.04,0.5 -0.12,0.72 h -6.03 c -0.08,-0.22 -0.12,-0.46 -0.12,-0.72 0,-0.26 0.04,-0.5 0.12,-0.72 h 1.98 v -8.07 c 0,-0.66 -0.04,-1.26 -0.13,-1.82 -0.09,-0.55 -0.26,-1.02 -0.5,-1.41 -0.24,-0.39 -0.58,-0.69 -1.02,-0.92 -0.44,-0.22 -1.01,-0.33 -1.71,-0.33 -0.56,0 -1.1,0.1 -1.62,0.29 -0.52,0.19 -0.99,0.51 -1.4,0.95 -0.41,0.44 -0.74,1.02 -0.98,1.75 -0.24,0.73 -0.36,1.63 -0.36,2.69 v 6.87 h 1.98 c 0.08,0.22 0.12,0.46 0.12,0.72 0,0.26 -0.04,0.5 -0.12,0.72 h -6.03 c -0.08,-0.22 -0.12,-0.46 -0.12,-0.72 0,-0.26 0.04,-0.5 0.12,-0.72 h 2.14 z"
   class="st3" />
	<path
   style="fill:#b41f29"
   inkscape:connector-curvature="0"
   id="path48"
   d="m 152.75,33.68 c -0.22,0.16 -0.49,0.33 -0.81,0.51 -0.32,0.18 -0.69,0.35 -1.1,0.51 -0.41,0.16 -0.88,0.29 -1.4,0.4 -0.52,0.11 -1.09,0.17 -1.71,0.17 -1.12,0 -2.12,-0.21 -2.99,-0.61 -0.87,-0.41 -1.6,-0.96 -2.18,-1.67 -0.58,-0.7 -1.02,-1.52 -1.32,-2.45 -0.3,-0.93 -0.45,-1.93 -0.45,-2.99 0,-1.14 0.14,-2.21 0.41,-3.21 0.27,-1 0.68,-1.87 1.22,-2.61 0.54,-0.74 1.22,-1.32 2.04,-1.76 0.82,-0.43 1.79,-0.65 2.91,-0.65 0.86,0 1.65,0.18 2.36,0.52 0.71,0.35 1.23,0.82 1.58,1.4 v -1.59 c 0.12,-0.04 0.25,-0.07 0.39,-0.09 0.14,-0.02 0.27,-0.03 0.39,-0.03 0.28,0 0.53,0.04 0.75,0.12 v 5.94 c -0.24,0.08 -0.51,0.12 -0.81,0.12 -0.3,0 -0.57,-0.04 -0.81,-0.12 v -0.6 c 0,-1.26 -0.31,-2.25 -0.95,-2.99 -0.63,-0.73 -1.55,-1.1 -2.75,-1.1 -0.96,0 -1.75,0.21 -2.35,0.62 -0.61,0.41 -1.09,0.94 -1.44,1.58 -0.35,0.64 -0.59,1.35 -0.72,2.12 -0.13,0.77 -0.19,1.52 -0.19,2.24 0,1 0.13,1.88 0.39,2.63 0.26,0.75 0.62,1.38 1.08,1.89 0.46,0.51 1,0.9 1.64,1.16 0.63,0.26 1.31,0.39 2.06,0.39 0.54,0 1.04,-0.06 1.52,-0.18 0.47,-0.12 0.91,-0.27 1.31,-0.46 0.4,-0.19 0.77,-0.4 1.1,-0.63 0.33,-0.23 0.62,-0.45 0.86,-0.65 v 2.07 z"
   class="st3" />
	<path
   style="fill:#b41f29"
   inkscape:connector-curvature="0"
   id="path50"
   d="m 165.41,32.75 c -0.46,0.68 -1.09,1.27 -1.89,1.77 -0.8,0.5 -1.93,0.75 -3.39,0.75 -1.44,0 -2.6,-0.39 -3.48,-1.16 -0.88,-0.77 -1.32,-1.85 -1.32,-3.23 0,-0.66 0.09,-1.27 0.27,-1.83 0.18,-0.56 0.48,-1.06 0.9,-1.5 0.42,-0.44 0.97,-0.81 1.65,-1.11 0.68,-0.3 1.52,-0.5 2.52,-0.6 l 4.65,-0.48 v -0.72 c 0,-0.62 -0.06,-1.17 -0.18,-1.64 -0.12,-0.47 -0.33,-0.87 -0.62,-1.2 -0.29,-0.33 -0.69,-0.58 -1.19,-0.75 -0.5,-0.17 -1.13,-0.25 -1.89,-0.25 -0.52,0 -1.01,0.06 -1.47,0.18 -0.46,0.12 -0.89,0.27 -1.29,0.44 -0.4,0.17 -0.77,0.36 -1.11,0.57 -0.34,0.21 -0.63,0.41 -0.87,0.59 v -1.83 c 0.2,-0.14 0.46,-0.3 0.78,-0.48 0.32,-0.18 0.69,-0.35 1.13,-0.5 0.44,-0.15 0.92,-0.28 1.49,-0.39 0.56,-0.11 1.18,-0.17 1.86,-0.17 0.48,0 1.02,0.05 1.64,0.15 0.61,0.1 1.19,0.32 1.73,0.66 0.54,0.34 1,0.84 1.37,1.5 0.37,0.66 0.56,1.56 0.56,2.7 v 9.18 h 2.01 c 0.08,0.22 0.12,0.46 0.12,0.72 0,0.26 -0.04,0.5 -0.12,0.72 h -3.84 v -2.09 z m -0.09,-5.88 -4.02,0.42 c -1.32,0.16 -2.33,0.5 -3.02,1.01 -0.69,0.51 -1.04,1.38 -1.04,2.6 0,0.9 0.3,1.6 0.9,2.1 0.6,0.5 1.41,0.75 2.43,0.75 0.56,0 1.12,-0.08 1.68,-0.25 0.56,-0.17 1.07,-0.43 1.52,-0.78 0.45,-0.35 0.82,-0.78 1.11,-1.29 0.29,-0.51 0.44,-1.1 0.44,-1.76 z"
   class="st3" />
	<path
   style="fill:#b41f29"
   inkscape:connector-curvature="0"
   id="path52"
   d="m 171.44,29.42 c 0.12,-0.04 0.25,-0.07 0.39,-0.09 0.14,-0.02 0.27,-0.03 0.39,-0.03 0.12,0 0.25,0.01 0.39,0.03 0.14,0.02 0.27,0.05 0.39,0.09 v 0.51 c 0,0.62 0.13,1.17 0.39,1.64 0.26,0.47 0.61,0.86 1.05,1.17 0.44,0.31 0.94,0.54 1.52,0.71 0.57,0.16 1.17,0.24 1.82,0.24 0.5,0 0.96,-0.04 1.4,-0.13 0.44,-0.09 0.81,-0.24 1.14,-0.45 0.33,-0.21 0.59,-0.48 0.78,-0.79 0.19,-0.32 0.29,-0.72 0.29,-1.2 0,-0.44 -0.08,-0.81 -0.24,-1.13 -0.16,-0.31 -0.39,-0.58 -0.67,-0.81 -0.29,-0.23 -0.64,-0.42 -1.04,-0.57 -0.4,-0.15 -0.85,-0.29 -1.35,-0.44 l -2.79,-0.75 c -1.2,-0.32 -2.1,-0.78 -2.7,-1.38 -0.6,-0.6 -0.9,-1.39 -0.9,-2.37 0,-0.78 0.15,-1.45 0.44,-2.01 0.29,-0.56 0.67,-1.02 1.14,-1.37 0.47,-0.35 1.01,-0.6 1.61,-0.77 0.6,-0.17 1.21,-0.24 1.83,-0.24 1.02,0 1.89,0.16 2.61,0.48 0.72,0.32 1.27,0.77 1.65,1.35 v -1.47 c 0.12,-0.04 0.25,-0.07 0.39,-0.09 0.14,-0.02 0.27,-0.03 0.39,-0.03 0.28,0 0.53,0.04 0.75,0.12 v 4.89 c -0.24,0.08 -0.5,0.12 -0.78,0.12 -0.28,0 -0.54,-0.04 -0.78,-0.12 v -0.69 c 0,-0.32 -0.08,-0.66 -0.24,-1.02 -0.16,-0.36 -0.4,-0.69 -0.73,-1 -0.33,-0.31 -0.76,-0.57 -1.28,-0.78 -0.52,-0.21 -1.14,-0.31 -1.86,-0.31 -0.44,0 -0.86,0.04 -1.26,0.13 -0.4,0.09 -0.75,0.24 -1.05,0.45 -0.3,0.21 -0.54,0.48 -0.72,0.81 -0.18,0.33 -0.27,0.73 -0.27,1.19 0,0.4 0.06,0.73 0.19,0.99 0.13,0.26 0.32,0.49 0.57,0.68 0.25,0.19 0.56,0.35 0.93,0.48 0.37,0.13 0.79,0.26 1.27,0.38 l 2.49,0.66 c 0.78,0.2 1.45,0.43 2.01,0.69 0.56,0.26 1.01,0.57 1.35,0.93 0.34,0.36 0.59,0.78 0.75,1.25 0.16,0.47 0.24,1.03 0.24,1.67 0,0.68 -0.13,1.28 -0.41,1.8 -0.27,0.52 -0.64,0.96 -1.11,1.31 -0.47,0.35 -1.04,0.62 -1.7,0.8 -0.66,0.18 -1.38,0.27 -2.16,0.27 -1.04,0 -2,-0.16 -2.87,-0.47 -0.87,-0.31 -1.57,-0.79 -2.09,-1.46 v 1.56 c -0.24,0.08 -0.5,0.12 -0.78,0.12 -0.28,0 -0.54,-0.04 -0.78,-0.12 z"
   class="st3" />
	<path
   style="fill:#b41f29"
   inkscape:connector-curvature="0"
   id="path54"
   d="m 187.35,21.07 h -2.4 c -0.08,-0.22 -0.12,-0.46 -0.12,-0.72 0,-0.26 0.04,-0.5 0.12,-0.72 h 2.4 v -4.17 l 1.92,-1.08 v 5.25 h 3.72 c 0.08,0.22 0.12,0.46 0.12,0.72 0,0.26 -0.04,0.5 -0.12,0.72 h -3.72 v 9.72 c 0,0.58 0.06,1.04 0.19,1.38 0.13,0.34 0.3,0.61 0.53,0.81 0.38,0.32 0.87,0.48 1.47,0.48 0.48,0 0.88,-0.05 1.2,-0.15 0.32,-0.1 0.58,-0.2 0.78,-0.3 v 1.59 c -0.28,0.16 -0.63,0.27 -1.05,0.35 -0.42,0.07 -0.81,0.1 -1.17,0.1 -1.26,0 -2.22,-0.35 -2.88,-1.05 -0.66,-0.7 -0.99,-1.7 -0.99,-3 z"
   class="st3" />
	<path
   style="fill:#b41f29"
   inkscape:connector-curvature="0"
   id="path56"
   d="m 206.19,34.07 c -0.52,0.28 -1.17,0.55 -1.96,0.81 -0.79,0.26 -1.63,0.39 -2.51,0.39 -1.32,0 -2.45,-0.22 -3.38,-0.66 -0.93,-0.44 -1.69,-1.04 -2.28,-1.79 -0.59,-0.75 -1.03,-1.61 -1.31,-2.57 -0.28,-0.96 -0.42,-1.97 -0.42,-3.03 0,-1.06 0.13,-2.08 0.38,-3.05 0.25,-0.97 0.63,-1.82 1.15,-2.55 0.52,-0.73 1.18,-1.31 1.98,-1.76 0.8,-0.44 1.75,-0.66 2.85,-0.66 1.16,0 2.13,0.22 2.93,0.65 0.79,0.43 1.43,1.01 1.92,1.74 0.49,0.73 0.84,1.58 1.05,2.54 0.21,0.96 0.31,1.96 0.31,3 v 0.6 h -10.53 c 0.04,0.78 0.18,1.53 0.42,2.24 0.24,0.71 0.57,1.33 1.01,1.86 0.43,0.53 0.97,0.95 1.62,1.26 0.65,0.31 1.39,0.47 2.24,0.47 1.06,0 1.93,-0.15 2.63,-0.47 0.69,-0.31 1.32,-0.65 1.9,-1 z m -1.38,-7.8 c 0,-0.58 -0.06,-1.19 -0.17,-1.83 -0.11,-0.64 -0.31,-1.23 -0.62,-1.77 -0.3,-0.54 -0.72,-0.98 -1.26,-1.33 -0.54,-0.35 -1.24,-0.53 -2.1,-0.53 -0.8,0 -1.47,0.19 -2.01,0.56 -0.54,0.37 -0.98,0.83 -1.32,1.38 -0.34,0.55 -0.58,1.15 -0.73,1.79 -0.15,0.64 -0.22,1.22 -0.22,1.74 h 8.43 z"
   class="st3" />
	<path
   style="fill:#b41f29"
   inkscape:connector-curvature="0"
   id="path58"
   d="M 211.08,33.41 V 21.07 h -2.13 c -0.08,-0.22 -0.12,-0.46 -0.12,-0.72 0,-0.26 0.04,-0.5 0.12,-0.72 h 3.81 v 3.09 c 0.14,-0.36 0.35,-0.72 0.63,-1.1 0.28,-0.37 0.6,-0.71 0.98,-1.01 0.37,-0.3 0.78,-0.54 1.23,-0.73 0.45,-0.19 0.94,-0.29 1.46,-0.29 0.38,0 0.7,0.03 0.96,0.08 0.26,0.05 0.49,0.1 0.69,0.17 l -0.18,1.86 c -0.16,-0.08 -0.36,-0.15 -0.6,-0.23 -0.24,-0.07 -0.59,-0.1 -1.05,-0.1 -0.42,0 -0.85,0.1 -1.3,0.3 -0.45,0.2 -0.87,0.54 -1.25,1.01 -0.38,0.47 -0.7,1.09 -0.95,1.85 -0.25,0.76 -0.38,1.69 -0.38,2.79 v 6.09 h 2.28 c 0.08,0.22 0.12,0.46 0.12,0.72 0,0.26 -0.04,0.5 -0.12,0.72 h -6.33 c -0.08,-0.22 -0.12,-0.46 -0.12,-0.72 0,-0.26 0.04,-0.5 0.12,-0.72 z"
   class="st3" />
	<path
   style="fill:#b41f29"
   inkscape:connector-curvature="0"
   id="path60"
   d="m 230.22,14.53 h -2.34 c -0.08,-0.24 -0.12,-0.5 -0.12,-0.78 0,-0.28 0.04,-0.54 0.12,-0.78 h 6.72 c 0.08,0.24 0.12,0.5 0.12,0.78 0,0.28 -0.04,0.54 -0.12,0.78 h -2.34 v 12.72 c 0,1.22 0.17,2.24 0.51,3.05 0.34,0.81 0.79,1.46 1.33,1.95 0.55,0.49 1.17,0.84 1.88,1.04 0.7,0.2 1.41,0.3 2.13,0.3 0.78,0 1.53,-0.1 2.24,-0.3 0.71,-0.2 1.33,-0.54 1.88,-1.01 0.54,-0.47 0.98,-1.1 1.31,-1.88 0.33,-0.78 0.5,-1.76 0.5,-2.94 V 14.53 h -2.34 c -0.08,-0.24 -0.12,-0.5 -0.12,-0.78 0,-0.28 0.04,-0.54 0.12,-0.78 h 6.63 c 0.08,0.24 0.12,0.5 0.12,0.78 0,0.28 -0.04,0.54 -0.12,0.78 h -2.34 v 13.08 c 0,1.06 -0.15,2.06 -0.45,3 -0.3,0.94 -0.76,1.77 -1.4,2.48 -0.63,0.71 -1.44,1.27 -2.42,1.68 -0.98,0.41 -2.16,0.62 -3.54,0.62 -1.38,0 -2.57,-0.2 -3.57,-0.6 -1,-0.4 -1.83,-0.96 -2.48,-1.68 -0.65,-0.72 -1.13,-1.58 -1.44,-2.6 -0.31,-1.01 -0.47,-2.12 -0.47,-3.32 z"
   class="st3" />
	<path
   style="fill:#b41f29"
   inkscape:connector-curvature="0"
   id="path62"
   d="M 252.28,33.41 V 21.07 h -2.13 c -0.08,-0.22 -0.12,-0.46 -0.12,-0.72 0,-0.26 0.04,-0.5 0.12,-0.72 h 3.81 v 2.4 c 0.42,-0.76 1.03,-1.42 1.83,-1.98 0.8,-0.56 1.86,-0.84 3.18,-0.84 1.56,0 2.76,0.44 3.6,1.32 0.84,0.88 1.26,2.2 1.26,3.96 v 8.91 h 2.13 c 0.08,0.22 0.12,0.46 0.12,0.72 0,0.26 -0.04,0.5 -0.12,0.72 h -6.03 c -0.08,-0.22 -0.12,-0.46 -0.12,-0.72 0,-0.26 0.04,-0.5 0.12,-0.72 h 1.98 v -8.07 c 0,-0.66 -0.04,-1.26 -0.13,-1.82 -0.09,-0.55 -0.25,-1.02 -0.5,-1.41 -0.25,-0.39 -0.58,-0.69 -1.02,-0.92 -0.44,-0.22 -1.01,-0.33 -1.71,-0.33 -0.56,0 -1.1,0.1 -1.62,0.29 -0.52,0.19 -0.99,0.51 -1.4,0.95 -0.41,0.44 -0.74,1.02 -0.98,1.75 -0.24,0.73 -0.36,1.63 -0.36,2.69 v 6.87 h 1.98 c 0.08,0.22 0.12,0.46 0.12,0.72 0,0.26 -0.04,0.5 -0.12,0.72 h -6.03 c -0.08,-0.22 -0.12,-0.46 -0.12,-0.72 0,-0.26 0.04,-0.5 0.12,-0.72 h 2.14 z"
   class="st3" />
	<path
   style="fill:#b41f29"
   inkscape:connector-curvature="0"
   id="path64"
   d="M 269.98,33.41 V 21.07 h -2.13 c -0.08,-0.22 -0.12,-0.46 -0.12,-0.72 0,-0.26 0.04,-0.5 0.12,-0.72 h 4.05 V 33.4 h 2.13 c 0.08,0.22 0.12,0.46 0.12,0.72 0,0.26 -0.04,0.5 -0.12,0.72 h -6.18 c -0.08,-0.22 -0.12,-0.46 -0.12,-0.72 0,-0.26 0.04,-0.5 0.12,-0.72 h 2.13 z m 0.54,-17.26 c -0.36,0 -0.69,-0.14 -0.97,-0.44 -0.29,-0.29 -0.44,-0.66 -0.44,-1.13 0,-0.46 0.14,-0.83 0.44,-1.13 0.29,-0.29 0.61,-0.44 0.97,-0.44 0.36,0 0.69,0.15 0.98,0.44 0.29,0.29 0.43,0.67 0.43,1.13 0,0.46 -0.15,0.84 -0.43,1.13 -0.3,0.3 -0.62,0.44 -0.98,0.44 z"
   class="st3" />
	<path
   style="fill:#b41f29"
   inkscape:connector-curvature="0"
   id="path66"
   d="m 275.89,21.07 h -1.59 c -0.08,-0.22 -0.12,-0.46 -0.12,-0.72 0,-0.26 0.04,-0.5 0.12,-0.72 h 5.67 c 0.08,0.22 0.12,0.46 0.12,0.72 0,0.26 -0.04,0.5 -0.12,0.72 h -2.1 l 4.11,12.15 4.14,-12.15 h -1.98 c -0.08,-0.22 -0.12,-0.46 -0.12,-0.72 0,-0.26 0.04,-0.5 0.12,-0.72 h 5.34 c 0.08,0.22 0.12,0.46 0.12,0.72 0,0.26 -0.04,0.5 -0.12,0.72 h -1.59 L 283,34.94 h -2.19 z"
   class="st3" />
	<path
   style="fill:#b41f29"
   inkscape:connector-curvature="0"
   id="path68"
   d="m 302.29,34.07 c -0.52,0.28 -1.17,0.55 -1.96,0.81 -0.79,0.26 -1.63,0.39 -2.51,0.39 -1.32,0 -2.45,-0.22 -3.38,-0.66 -0.93,-0.44 -1.69,-1.04 -2.28,-1.79 -0.59,-0.75 -1.03,-1.61 -1.3,-2.57 -0.28,-0.96 -0.42,-1.97 -0.42,-3.03 0,-1.06 0.12,-2.08 0.38,-3.05 0.25,-0.97 0.63,-1.82 1.16,-2.55 0.52,-0.73 1.18,-1.31 1.98,-1.76 0.8,-0.44 1.75,-0.66 2.85,-0.66 1.16,0 2.14,0.22 2.93,0.65 0.79,0.43 1.43,1.01 1.92,1.74 0.49,0.73 0.84,1.58 1.05,2.54 0.21,0.96 0.32,1.96 0.32,3 v 0.6 H 292.5 c 0.04,0.78 0.18,1.53 0.42,2.24 0.24,0.71 0.58,1.33 1.01,1.86 0.43,0.53 0.97,0.95 1.62,1.26 0.65,0.31 1.39,0.47 2.24,0.47 1.06,0 1.93,-0.15 2.63,-0.47 0.69,-0.31 1.33,-0.65 1.91,-1 v 1.98 z m -1.37,-7.8 c 0,-0.58 -0.06,-1.19 -0.17,-1.83 -0.11,-0.64 -0.32,-1.23 -0.62,-1.77 -0.3,-0.54 -0.72,-0.98 -1.26,-1.33 -0.54,-0.35 -1.24,-0.53 -2.1,-0.53 -0.8,0 -1.47,0.19 -2.01,0.56 -0.54,0.37 -0.98,0.83 -1.32,1.38 -0.34,0.55 -0.58,1.15 -0.74,1.79 -0.15,0.64 -0.22,1.22 -0.22,1.74 h 8.44 z"
   class="st3" />
	<path
   style="fill:#b41f29"
   inkscape:connector-curvature="0"
   id="path70"
   d="M 307.19,33.41 V 21.07 h -2.13 c -0.08,-0.22 -0.12,-0.46 -0.12,-0.72 0,-0.26 0.04,-0.5 0.12,-0.72 h 3.81 v 3.09 c 0.14,-0.36 0.35,-0.72 0.63,-1.1 0.28,-0.37 0.6,-0.71 0.98,-1.01 0.37,-0.3 0.78,-0.54 1.23,-0.73 0.45,-0.19 0.94,-0.29 1.46,-0.29 0.38,0 0.7,0.03 0.96,0.08 0.26,0.05 0.49,0.1 0.69,0.17 l -0.18,1.86 c -0.16,-0.08 -0.36,-0.15 -0.6,-0.23 -0.24,-0.07 -0.59,-0.1 -1.05,-0.1 -0.42,0 -0.85,0.1 -1.3,0.3 -0.45,0.2 -0.87,0.54 -1.25,1.01 -0.38,0.47 -0.7,1.09 -0.95,1.85 -0.25,0.76 -0.38,1.69 -0.38,2.79 v 6.09 h 2.28 c 0.08,0.22 0.12,0.46 0.12,0.72 0,0.26 -0.04,0.5 -0.12,0.72 h -6.33 c -0.08,-0.22 -0.12,-0.46 -0.12,-0.72 0,-0.26 0.04,-0.5 0.12,-0.72 z"
   class="st3" />
	<path
   style="fill:#b41f29"
   inkscape:connector-curvature="0"
   id="path72"
   d="m 315.77,29.42 c 0.12,-0.04 0.25,-0.07 0.39,-0.09 0.14,-0.02 0.27,-0.03 0.39,-0.03 0.12,0 0.25,0.01 0.39,0.03 0.14,0.02 0.27,0.05 0.39,0.09 v 0.51 c 0,0.62 0.13,1.17 0.39,1.64 0.26,0.47 0.61,0.86 1.05,1.17 0.44,0.31 0.95,0.54 1.52,0.71 0.57,0.17 1.17,0.24 1.82,0.24 0.5,0 0.96,-0.04 1.4,-0.13 0.43,-0.09 0.81,-0.24 1.14,-0.45 0.33,-0.21 0.59,-0.48 0.78,-0.79 0.19,-0.32 0.29,-0.72 0.29,-1.2 0,-0.44 -0.08,-0.81 -0.24,-1.13 -0.16,-0.31 -0.39,-0.58 -0.67,-0.81 -0.29,-0.23 -0.64,-0.42 -1.04,-0.57 -0.4,-0.15 -0.85,-0.29 -1.35,-0.44 l -2.79,-0.75 c -1.2,-0.32 -2.1,-0.78 -2.7,-1.38 -0.6,-0.6 -0.9,-1.39 -0.9,-2.37 0,-0.78 0.14,-1.45 0.43,-2.01 0.29,-0.56 0.67,-1.02 1.14,-1.37 0.47,-0.35 1,-0.6 1.6,-0.77 0.6,-0.16 1.21,-0.24 1.83,-0.24 1.02,0 1.89,0.16 2.61,0.48 0.72,0.32 1.27,0.77 1.65,1.35 v -1.47 c 0.12,-0.04 0.25,-0.07 0.39,-0.09 0.14,-0.02 0.27,-0.03 0.39,-0.03 0.28,0 0.53,0.04 0.75,0.12 v 4.89 c -0.24,0.08 -0.5,0.12 -0.78,0.12 -0.28,0 -0.54,-0.04 -0.78,-0.12 v -0.69 c 0,-0.32 -0.08,-0.66 -0.24,-1.02 -0.16,-0.36 -0.41,-0.69 -0.74,-1 -0.33,-0.31 -0.75,-0.57 -1.27,-0.78 -0.52,-0.21 -1.14,-0.31 -1.86,-0.31 -0.44,0 -0.86,0.04 -1.26,0.13 -0.4,0.09 -0.75,0.24 -1.05,0.45 -0.3,0.21 -0.54,0.48 -0.72,0.81 -0.18,0.33 -0.27,0.73 -0.27,1.19 0,0.4 0.06,0.73 0.2,0.99 0.13,0.26 0.32,0.49 0.57,0.68 0.25,0.19 0.56,0.35 0.93,0.48 0.37,0.13 0.79,0.26 1.28,0.38 l 2.49,0.66 c 0.78,0.2 1.45,0.43 2.01,0.69 0.56,0.26 1.01,0.57 1.35,0.93 0.34,0.36 0.59,0.78 0.75,1.25 0.16,0.47 0.24,1.03 0.24,1.67 0,0.68 -0.13,1.28 -0.41,1.8 -0.27,0.52 -0.64,0.96 -1.11,1.31 -0.47,0.35 -1.04,0.62 -1.7,0.8 -0.66,0.18 -1.38,0.27 -2.16,0.27 -1.04,0 -2,-0.16 -2.87,-0.47 -0.87,-0.31 -1.57,-0.79 -2.08,-1.46 v 1.56 c -0.24,0.08 -0.5,0.12 -0.78,0.12 -0.28,0 -0.54,-0.04 -0.78,-0.12 v -5.43 z"
   class="st3" />
	<path
   style="fill:#b41f29"
   inkscape:connector-curvature="0"
   id="path74"
   d="M 332.21,33.41 V 21.07 h -2.13 c -0.08,-0.22 -0.12,-0.46 -0.12,-0.72 0,-0.26 0.04,-0.5 0.12,-0.72 h 4.05 V 33.4 h 2.13 c 0.08,0.22 0.12,0.46 0.12,0.72 0,0.26 -0.04,0.5 -0.12,0.72 h -6.18 c -0.08,-0.22 -0.12,-0.46 -0.12,-0.72 0,-0.26 0.04,-0.5 0.12,-0.72 h 2.13 z m 0.54,-17.26 c -0.36,0 -0.69,-0.14 -0.97,-0.44 -0.29,-0.29 -0.44,-0.66 -0.44,-1.13 0,-0.46 0.14,-0.83 0.44,-1.13 0.29,-0.29 0.61,-0.44 0.97,-0.44 0.36,0 0.69,0.15 0.98,0.44 0.29,0.29 0.43,0.67 0.43,1.13 0,0.46 -0.15,0.84 -0.43,1.13 -0.3,0.3 -0.62,0.44 -0.98,0.44 z"
   class="st3" />
	<path
   style="fill:#b41f29"
   inkscape:connector-curvature="0"
   id="path76"
   d="m 339.98,21.07 h -2.4 c -0.08,-0.22 -0.12,-0.46 -0.12,-0.72 0,-0.26 0.04,-0.5 0.12,-0.72 h 2.4 v -4.17 l 1.92,-1.08 v 5.25 h 3.72 c 0.08,0.22 0.12,0.46 0.12,0.72 0,0.26 -0.04,0.5 -0.12,0.72 h -3.72 v 9.72 c 0,0.58 0.07,1.04 0.2,1.38 0.13,0.34 0.3,0.61 0.53,0.81 0.38,0.32 0.87,0.48 1.47,0.48 0.48,0 0.88,-0.05 1.2,-0.15 0.32,-0.1 0.58,-0.2 0.78,-0.3 v 1.59 c -0.28,0.16 -0.63,0.27 -1.05,0.35 -0.42,0.07 -0.81,0.1 -1.17,0.1 -1.26,0 -2.22,-0.35 -2.88,-1.05 -0.66,-0.7 -0.99,-1.7 -0.99,-3 v -9.93 z"
   class="st3" />
	<path
   style="fill:#b41f29"
   inkscape:connector-curvature="0"
   id="path78"
   d="m 348.05,38.24 c 0.32,0.12 0.65,0.22 1,0.3 0.35,0.08 0.71,0.12 1.07,0.12 0.36,0 0.68,-0.04 0.97,-0.1 0.29,-0.07 0.57,-0.21 0.83,-0.42 0.26,-0.21 0.51,-0.52 0.75,-0.93 0.24,-0.41 0.47,-0.95 0.69,-1.61 l 0.18,-0.54 -5.04,-13.98 h -1.59 c -0.08,-0.22 -0.12,-0.46 -0.12,-0.72 0,-0.26 0.04,-0.5 0.12,-0.72 h 5.7 c 0.08,0.22 0.12,0.46 0.12,0.72 0,0.26 -0.04,0.5 -0.12,0.72 h -2.07 l 4.08,11.73 4.05,-11.73 h -1.92 c -0.08,-0.22 -0.12,-0.46 -0.12,-0.72 0,-0.26 0.04,-0.5 0.12,-0.72 h 5.34 c 0.08,0.22 0.12,0.46 0.12,0.72 0,0.26 -0.04,0.5 -0.12,0.72 h -1.59 l -5.49,15.3 c -0.46,1.28 -1,2.21 -1.62,2.79 -0.46,0.44 -0.96,0.73 -1.49,0.87 -0.53,0.14 -1.09,0.21 -1.67,0.21 -0.52,0 -0.94,-0.04 -1.26,-0.13 -0.32,-0.09 -0.63,-0.19 -0.93,-0.29 v -1.59 z"
   class="st3" />
</g><g
     id="g108">
	<path
   style="fill:#58595b"
   inkscape:connector-curvature="0"
   id="path82"
   d="m 91.46,49.17 h 4.13 l 9.12,15.59 9.12,-15.59 h 4.04 l 1.39,29.96 h -4.22 l -0.99,-23 -8.45,14.15 h -2.16 L 95.13,56.31 94.1,79.13 h -4.04 z"
   class="st4" />
	<path
   style="fill:#58595b"
   inkscape:connector-curvature="0"
   id="path84"
   d="m 142.85,76.08 c -0.24,0.27 -0.6,0.61 -1.08,1.03 -0.48,0.42 -1.1,0.82 -1.86,1.21 -0.76,0.39 -1.66,0.73 -2.69,1.01 -1.03,0.29 -2.21,0.43 -3.53,0.43 -1.62,0 -3.1,-0.27 -4.45,-0.81 -1.35,-0.54 -2.5,-1.3 -3.46,-2.29 -0.96,-0.99 -1.7,-2.17 -2.22,-3.55 -0.52,-1.38 -0.79,-2.9 -0.79,-4.58 0,-1.53 0.25,-2.96 0.76,-4.29 0.51,-1.33 1.23,-2.49 2.16,-3.46 0.93,-0.97 2.03,-1.74 3.3,-2.31 1.27,-0.57 2.67,-0.85 4.2,-0.85 1.8,0 3.34,0.34 4.63,1.03 1.29,0.69 2.34,1.6 3.17,2.74 0.82,1.14 1.43,2.44 1.82,3.91 0.39,1.47 0.58,3 0.58,4.58 H 126.9 c 0.03,0.93 0.23,1.78 0.61,2.56 0.37,0.78 0.88,1.45 1.51,2.02 0.63,0.57 1.35,1.02 2.16,1.35 0.81,0.33 1.66,0.49 2.56,0.49 1.77,0 3.22,-0.3 4.36,-0.9 1.14,-0.6 1.96,-1.18 2.47,-1.75 z m -3.64,-9.21 c -0.12,-1.62 -0.69,-3 -1.71,-4.13 -1.02,-1.14 -2.45,-1.71 -4.31,-1.71 -0.96,0 -1.82,0.16 -2.58,0.49 -0.76,0.33 -1.41,0.76 -1.95,1.3 -0.54,0.54 -0.96,1.16 -1.26,1.86 -0.3,0.7 -0.46,1.43 -0.5,2.18 h 12.31 z"
   class="st4" />
	<path
   style="fill:#58595b"
   inkscape:connector-curvature="0"
   id="path86"
   d="m 162.04,76.48 c -0.15,0.18 -0.4,0.46 -0.74,0.83 -0.34,0.37 -0.8,0.74 -1.37,1.1 -0.57,0.36 -1.24,0.67 -2,0.94 -0.76,0.27 -1.66,0.4 -2.67,0.4 -1.32,0 -2.55,-0.26 -3.69,-0.76 -1.14,-0.51 -2.13,-1.23 -2.96,-2.16 -0.84,-0.93 -1.49,-2.06 -1.95,-3.39 -0.46,-1.33 -0.7,-2.82 -0.7,-4.47 0,-1.98 0.35,-3.68 1.03,-5.1 0.69,-1.42 1.56,-2.59 2.63,-3.5 1.06,-0.91 2.22,-1.58 3.46,-2 1.24,-0.42 2.42,-0.63 3.53,-0.63 1.5,0 2.67,0.18 3.5,0.54 0.84,0.36 1.48,0.63 1.93,0.81 v -9.93 h 4.04 v 27.85 c 0,0.66 0.01,1.36 0.04,2.11 h -3.95 z m 0,-13.61 c -0.3,-0.24 -0.85,-0.56 -1.66,-0.97 -0.81,-0.4 -1.96,-0.61 -3.46,-0.61 -0.99,0 -1.89,0.18 -2.72,0.54 -0.82,0.36 -1.54,0.87 -2.16,1.53 -0.61,0.66 -1.09,1.47 -1.44,2.43 -0.34,0.96 -0.52,2.04 -0.52,3.23 0,0.99 0.12,1.92 0.36,2.81 0.24,0.88 0.61,1.66 1.1,2.31 0.5,0.66 1.12,1.18 1.89,1.55 0.76,0.37 1.67,0.56 2.72,0.56 1.05,0 1.95,-0.19 2.7,-0.58 0.75,-0.39 1.35,-0.88 1.82,-1.46 0.46,-0.58 0.81,-1.23 1.03,-1.93 0.22,-0.7 0.34,-1.35 0.34,-1.95 z"
   class="st4" />
	<path
   style="fill:#58595b"
   inkscape:connector-curvature="0"
   id="path88"
   d="m 170.71,49.98 h 4.54 v 4.54 h -4.54 z m 0.27,8.26 h 4.04 v 20.89 h -4.04 z"
   class="st4" />
	<path
   style="fill:#58595b"
   inkscape:connector-curvature="0"
   id="path90"
   d="m 198.02,76.26 c -0.93,1.05 -2.07,1.89 -3.44,2.54 -1.36,0.65 -2.94,0.97 -4.74,0.97 -1.68,0 -3.2,-0.28 -4.56,-0.83 -1.36,-0.55 -2.52,-1.32 -3.46,-2.29 -0.94,-0.97 -1.67,-2.14 -2.18,-3.5 -0.51,-1.36 -0.76,-2.85 -0.76,-4.47 0,-1.53 0.27,-2.96 0.81,-4.31 0.54,-1.35 1.3,-2.52 2.27,-3.53 0.97,-1 2.13,-1.8 3.46,-2.38 1.33,-0.58 2.81,-0.88 4.42,-0.88 1.77,0 3.32,0.31 4.67,0.94 1.35,0.63 2.5,1.48 3.46,2.56 l -2.65,2.56 c -0.63,-0.78 -1.39,-1.39 -2.29,-1.84 -0.9,-0.45 -1.96,-0.67 -3.19,-0.67 -1.08,0 -2.04,0.2 -2.9,0.61 -0.85,0.4 -1.57,0.96 -2.16,1.66 -0.58,0.7 -1.03,1.51 -1.35,2.43 -0.32,0.91 -0.47,1.86 -0.47,2.85 0,0.96 0.16,1.89 0.47,2.81 0.31,0.91 0.76,1.72 1.35,2.43 0.58,0.7 1.3,1.26 2.16,1.68 0.85,0.42 1.82,0.63 2.9,0.63 1.23,0 2.33,-0.23 3.3,-0.7 0.97,-0.46 1.77,-1.08 2.4,-1.86 z"
   class="st4" />
	<path
   style="fill:#58595b"
   inkscape:connector-curvature="0"
   id="path92"
   d="m 214.19,76.62 c -0.78,1.05 -1.8,1.83 -3.08,2.34 -1.27,0.51 -2.58,0.76 -3.93,0.76 -0.87,0 -1.73,-0.11 -2.58,-0.34 -0.85,-0.22 -1.63,-0.6 -2.34,-1.12 -0.7,-0.52 -1.27,-1.2 -1.71,-2.02 -0.44,-0.82 -0.65,-1.84 -0.65,-3.03 0,-2.25 0.79,-4.04 2.36,-5.39 1.57,-1.35 3.84,-2.02 6.81,-2.02 0.48,0 0.99,0.01 1.53,0.04 0.54,0.03 1.05,0.06 1.53,0.09 0.48,0.03 0.9,0.06 1.26,0.09 0.36,0.03 0.61,0.06 0.76,0.09 v -0.76 c 0,-1.56 -0.47,-2.67 -1.41,-3.35 -0.94,-0.67 -2.22,-1.01 -3.84,-1.01 -1.59,0 -2.84,0.22 -3.77,0.65 -0.93,0.44 -1.71,0.88 -2.34,1.33 l -1.89,-2.74 c 0.36,-0.3 0.79,-0.6 1.3,-0.9 0.51,-0.3 1.11,-0.58 1.8,-0.83 0.69,-0.25 1.47,-0.46 2.34,-0.63 0.87,-0.16 1.87,-0.25 3.01,-0.25 2.7,0 4.81,0.65 6.36,1.95 1.54,1.3 2.31,3.15 2.31,5.55 v 12.17 c 0,0.72 0.01,1.33 0.05,1.84 h -3.77 z m -0.04,-7.37 c -0.12,-0.03 -0.35,-0.07 -0.7,-0.11 -0.35,-0.05 -0.74,-0.08 -1.19,-0.11 -0.45,-0.03 -0.93,-0.06 -1.44,-0.09 -0.51,-0.03 -1,-0.05 -1.48,-0.05 -1.14,0 -2.06,0.14 -2.76,0.41 -0.7,0.27 -1.26,0.61 -1.66,1.01 -0.4,0.4 -0.68,0.85 -0.83,1.35 -0.15,0.49 -0.22,0.97 -0.22,1.41 0,1.14 0.39,2 1.17,2.58 0.78,0.58 1.86,0.88 3.23,0.88 0.78,0 1.52,-0.13 2.22,-0.4 0.7,-0.27 1.33,-0.63 1.86,-1.08 0.54,-0.45 0.97,-0.97 1.3,-1.57 0.33,-0.6 0.5,-1.21 0.5,-1.84 z"
   class="st4" />
	<path
   style="fill:#58595b"
   inkscape:connector-curvature="0"
   id="path94"
   d="m 222.64,49.17 h 4.04 v 29.96 h -4.04 z"
   class="st4" />
	<path
   style="fill:#58595b"
   inkscape:connector-curvature="0"
   id="path96"
   d="m 240.52,71.86 c 0.42,0.48 0.89,0.97 1.42,1.46 0.52,0.49 1.12,0.94 1.77,1.33 0.66,0.39 1.39,0.7 2.2,0.94 0.81,0.24 1.69,0.36 2.65,0.36 1.98,0 3.52,-0.45 4.63,-1.35 1.11,-0.9 1.66,-2.11 1.66,-3.64 0,-1.65 -0.63,-2.88 -1.89,-3.71 -1.26,-0.82 -3.07,-1.49 -5.44,-2 -1.29,-0.27 -2.45,-0.64 -3.5,-1.12 -1.05,-0.48 -1.95,-1.08 -2.72,-1.8 -0.76,-0.72 -1.36,-1.55 -1.77,-2.49 -0.42,-0.94 -0.63,-2.01 -0.63,-3.21 0,-1.11 0.21,-2.16 0.63,-3.14 0.42,-0.99 1.05,-1.86 1.89,-2.61 0.84,-0.75 1.89,-1.35 3.14,-1.8 1.26,-0.45 2.71,-0.67 4.36,-0.67 1.47,0 2.73,0.16 3.8,0.47 1.06,0.31 1.97,0.7 2.72,1.15 0.75,0.45 1.35,0.91 1.8,1.39 0.45,0.48 0.79,0.87 1.03,1.17 l -2.88,2.65 c -0.18,-0.21 -0.45,-0.49 -0.81,-0.83 -0.36,-0.34 -0.82,-0.68 -1.37,-1.01 -0.55,-0.33 -1.2,-0.61 -1.93,-0.83 -0.73,-0.22 -1.58,-0.34 -2.54,-0.34 -0.96,0 -1.78,0.13 -2.47,0.38 -0.69,0.25 -1.26,0.58 -1.71,0.99 -0.45,0.4 -0.78,0.86 -0.99,1.37 -0.21,0.51 -0.31,1.02 -0.31,1.53 0,0.75 0.16,1.39 0.47,1.91 0.31,0.52 0.77,0.99 1.37,1.39 0.6,0.4 1.34,0.75 2.22,1.03 0.88,0.29 1.89,0.56 3.03,0.83 1.11,0.27 2.19,0.62 3.26,1.05 1.06,0.44 2.01,1.02 2.85,1.75 0.84,0.73 1.5,1.63 2,2.69 0.49,1.06 0.74,2.36 0.74,3.89 0,1.29 -0.27,2.47 -0.81,3.55 -0.54,1.08 -1.28,2.01 -2.22,2.81 -0.94,0.79 -2.06,1.41 -3.35,1.84 -1.29,0.44 -2.68,0.65 -4.18,0.65 -1.41,0 -2.69,-0.17 -3.84,-0.5 -1.15,-0.33 -2.2,-0.75 -3.14,-1.26 -0.94,-0.51 -1.77,-1.07 -2.47,-1.69 -0.7,-0.61 -1.28,-1.22 -1.73,-1.82 z"
   class="st4" />
	<path
   style="fill:#58595b"
   inkscape:connector-curvature="0"
   id="path98"
   d="m 281.98,76.26 c -0.93,1.05 -2.07,1.89 -3.44,2.54 -1.36,0.65 -2.94,0.97 -4.74,0.97 -1.68,0 -3.2,-0.28 -4.56,-0.83 -1.36,-0.55 -2.52,-1.32 -3.46,-2.29 -0.94,-0.97 -1.67,-2.14 -2.18,-3.5 -0.51,-1.36 -0.76,-2.85 -0.76,-4.47 0,-1.53 0.27,-2.96 0.81,-4.31 0.54,-1.35 1.3,-2.52 2.27,-3.53 0.97,-1 2.13,-1.8 3.46,-2.38 1.33,-0.58 2.81,-0.88 4.43,-0.88 1.77,0 3.32,0.31 4.67,0.94 1.35,0.63 2.5,1.48 3.46,2.56 l -2.65,2.56 c -0.63,-0.78 -1.39,-1.39 -2.29,-1.84 -0.9,-0.45 -1.96,-0.67 -3.19,-0.67 -1.08,0 -2.05,0.2 -2.9,0.61 -0.85,0.4 -1.57,0.96 -2.16,1.66 -0.58,0.7 -1.03,1.51 -1.35,2.43 -0.32,0.91 -0.47,1.86 -0.47,2.85 0,0.96 0.16,1.89 0.47,2.81 0.31,0.91 0.76,1.72 1.35,2.43 0.58,0.7 1.3,1.26 2.16,1.68 0.85,0.42 1.82,0.63 2.9,0.63 1.23,0 2.33,-0.23 3.3,-0.7 0.97,-0.46 1.77,-1.08 2.4,-1.86 z"
   class="st4" />
	<path
   style="fill:#58595b"
   inkscape:connector-curvature="0"
   id="path100"
   d="m 285.04,49.17 h 4 v 12.17 c 0.27,-0.36 0.6,-0.75 0.99,-1.17 0.39,-0.42 0.87,-0.81 1.44,-1.17 0.57,-0.36 1.23,-0.66 1.98,-0.9 0.75,-0.24 1.6,-0.36 2.56,-0.36 2.72,0 4.75,0.79 6.06,2.38 1.32,1.59 1.98,3.74 1.98,6.47 V 79.12 H 300 V 66.91 c 0,-1.95 -0.42,-3.38 -1.26,-4.29 -0.84,-0.91 -2.02,-1.37 -3.55,-1.37 -1.17,0 -2.14,0.24 -2.92,0.72 -0.78,0.48 -1.4,1.1 -1.86,1.86 -0.46,0.76 -0.8,1.63 -1.01,2.6 -0.21,0.97 -0.31,1.97 -0.31,2.99 v 9.7 h -4.04 V 49.17 Z"
   class="st4" />
	<path
   style="fill:#58595b"
   inkscape:connector-curvature="0"
   id="path102"
   d="m 318.64,79.76 c -1.62,0 -3.1,-0.29 -4.45,-0.88 -1.35,-0.58 -2.51,-1.39 -3.48,-2.4 -0.97,-1.02 -1.74,-2.19 -2.29,-3.53 -0.56,-1.33 -0.83,-2.76 -0.83,-4.29 0,-1.53 0.28,-2.96 0.83,-4.29 0.55,-1.33 1.32,-2.51 2.29,-3.53 0.97,-1.02 2.13,-1.82 3.48,-2.4 1.35,-0.58 2.83,-0.88 4.45,-0.88 1.59,0 3.05,0.29 4.4,0.88 1.35,0.58 2.52,1.39 3.5,2.4 0.99,1.02 1.76,2.2 2.31,3.53 0.55,1.33 0.83,2.76 0.83,4.29 0,1.53 -0.28,2.96 -0.83,4.29 -0.56,1.33 -1.33,2.51 -2.31,3.53 -0.99,1.02 -2.16,1.82 -3.5,2.4 -1.35,0.59 -2.81,0.88 -4.4,0.88 z m 0,-3.5 c 1.08,0 2.05,-0.22 2.92,-0.65 0.87,-0.44 1.6,-1 2.2,-1.71 0.6,-0.7 1.06,-1.51 1.37,-2.43 0.31,-0.92 0.47,-1.85 0.47,-2.81 0,-0.93 -0.16,-1.85 -0.47,-2.76 -0.31,-0.91 -0.78,-1.73 -1.39,-2.45 -0.61,-0.72 -1.35,-1.3 -2.2,-1.73 -0.85,-0.44 -1.82,-0.65 -2.9,-0.65 -1.08,0 -2.05,0.22 -2.92,0.65 -0.87,0.43 -1.6,1 -2.2,1.71 -0.6,0.71 -1.05,1.51 -1.37,2.43 -0.32,0.91 -0.47,1.85 -0.47,2.81 0,0.96 0.16,1.89 0.47,2.78 0.31,0.9 0.78,1.71 1.39,2.43 0.61,0.72 1.35,1.3 2.2,1.73 0.86,0.43 1.82,0.65 2.9,0.65 z"
   class="st4" />
	<path
   style="fill:#58595b"
   inkscape:connector-curvature="0"
   id="path104"
   d="m 343.44,79.76 c -1.62,0 -3.1,-0.29 -4.45,-0.88 -1.35,-0.58 -2.51,-1.39 -3.48,-2.4 -0.97,-1.02 -1.74,-2.19 -2.29,-3.53 -0.56,-1.33 -0.83,-2.76 -0.83,-4.29 0,-1.53 0.28,-2.96 0.83,-4.29 0.55,-1.33 1.32,-2.51 2.29,-3.53 0.97,-1.02 2.13,-1.82 3.48,-2.4 1.35,-0.58 2.83,-0.88 4.45,-0.88 1.59,0 3.05,0.29 4.4,0.88 1.35,0.58 2.52,1.39 3.5,2.4 0.99,1.02 1.76,2.2 2.31,3.53 0.55,1.33 0.83,2.76 0.83,4.29 0,1.53 -0.28,2.96 -0.83,4.29 -0.56,1.33 -1.33,2.51 -2.31,3.53 -0.99,1.02 -2.16,1.82 -3.5,2.4 -1.35,0.59 -2.82,0.88 -4.4,0.88 z m 0,-3.5 c 1.08,0 2.05,-0.22 2.92,-0.65 0.87,-0.44 1.6,-1 2.2,-1.71 0.6,-0.7 1.06,-1.51 1.37,-2.43 0.31,-0.91 0.47,-1.85 0.47,-2.81 0,-0.93 -0.16,-1.85 -0.47,-2.76 -0.31,-0.91 -0.78,-1.73 -1.39,-2.45 -0.61,-0.72 -1.35,-1.3 -2.2,-1.73 -0.85,-0.44 -1.82,-0.65 -2.9,-0.65 -1.08,0 -2.05,0.22 -2.92,0.65 -0.87,0.43 -1.6,1 -2.2,1.71 -0.6,0.71 -1.05,1.51 -1.37,2.43 -0.32,0.91 -0.47,1.85 -0.47,2.81 0,0.96 0.16,1.89 0.47,2.78 0.31,0.9 0.78,1.71 1.39,2.43 0.61,0.72 1.35,1.3 2.2,1.73 0.85,0.43 1.82,0.65 2.9,0.65 z"
   class="st4" />
	<path
   style="fill:#58595b"
   inkscape:connector-curvature="0"
   id="path106"
   d="m 358.17,49.17 h 4.04 v 29.96 h -4.04 z"
   class="st4" />
</g></g>
<g
   id="g110"
   transform="translate(90.19,-28.370681)">
</g>
<g
   id="g112"
   transform="translate(90.19,-28.370681)">
</g>
<g
   id="g114"
   transform="translate(90.19,-28.370681)">
</g>
<g
   id="g116"
   transform="translate(90.19,-28.370681)">
</g>
<g
   id="g118"
   transform="translate(90.19,-28.370681)">
</g>
<g
   id="g120"
   transform="translate(90.19,-28.370681)">
</g>
</svg>